<svg xmlns="http://www.w3.org/2000/svg" xmlns:xlink="http://www.w3.org/1999/xlink" width="500" zoomAndPan="magnify" viewBox="0 0 375 374.999991" height="500" preserveAspectRatio="xMidYMid meet" version="1.0"><defs><clipPath id="id1"><path d="M 50 162 L 326 162 L 326 348.5 L 50 348.5 Z M 50 162 " clip-rule="nonzero"/></clipPath><clipPath id="id2"><path d="M 10 95 L 364.714844 95 L 364.714844 300 L 10 300 Z M 10 95 " clip-rule="nonzero"/></clipPath><clipPath id="id3"><path d="M 44 26.75 L 331 26.75 L 331 252 L 44 252 Z M 44 26.75 " clip-rule="nonzero"/></clipPath></defs><path fill="#000000" d="M 187.5 0 C 83.945312 0 0 83.945312 0 187.5 C 0 291.054688 83.945312 375 187.5 375 C 291.054688 375 375 291.054688 375 187.5 C 375 83.945312 291.054688 0 187.5 0 " fill-opacity="1" fill-rule="nonzero"/><g clip-path="url(#id1)"><path fill="#ea9052" d="M 325.21875 255.371094 C 325.21875 256.894531 325.164062 258.417969 325.054688 259.941406 C 324.941406 261.464844 324.777344 262.984375 324.558594 264.5 C 324.335938 266.019531 324.0625 267.53125 323.730469 269.039062 C 323.398438 270.546875 323.015625 272.046875 322.574219 273.542969 C 322.136719 275.039062 321.644531 276.527344 321.097656 278.003906 C 320.550781 279.484375 319.949219 280.953125 319.296875 282.410156 C 318.640625 283.871094 317.933594 285.316406 317.175781 286.753906 C 316.417969 288.1875 315.609375 289.609375 314.746094 291.019531 C 313.886719 292.429688 312.972656 293.820312 312.011719 295.199219 C 311.046875 296.578125 310.035156 297.9375 308.972656 299.285156 C 307.914062 300.628906 306.804688 301.953125 305.644531 303.261719 C 304.488281 304.570312 303.285156 305.855469 302.03125 307.125 C 300.78125 308.390625 299.484375 309.636719 298.144531 310.863281 C 296.804688 312.085938 295.417969 313.289062 293.988281 314.46875 C 292.5625 315.644531 291.089844 316.800781 289.578125 317.929688 C 288.066406 319.058594 286.515625 320.164062 284.921875 321.242188 C 283.332031 322.320312 281.699219 323.371094 280.03125 324.394531 C 278.363281 325.417969 276.660156 326.414062 274.917969 327.378906 C 273.179688 328.347656 271.402344 329.285156 269.59375 330.195312 C 267.785156 331.101562 265.945312 331.980469 264.074219 332.828125 C 262.203125 333.671875 260.300781 334.488281 258.367188 335.273438 C 256.4375 336.054688 254.480469 336.808594 252.492188 337.527344 C 250.507812 338.246094 248.496094 338.929688 246.460938 339.582031 C 244.425781 340.234375 242.367188 340.851562 240.289062 341.433594 C 238.207031 342.019531 236.109375 342.566406 233.988281 343.082031 C 231.867188 343.59375 229.730469 344.070312 227.574219 344.515625 C 225.421875 344.957031 223.25 345.363281 221.066406 345.734375 C 218.882812 346.105469 216.6875 346.4375 214.480469 346.734375 C 212.269531 347.035156 210.054688 347.292969 207.824219 347.519531 C 205.597656 347.742188 203.363281 347.929688 201.125 348.078125 C 198.882812 348.226562 196.636719 348.339844 194.390625 348.414062 C 192.140625 348.488281 189.890625 348.527344 187.636719 348.527344 C 185.386719 348.527344 183.136719 348.488281 180.886719 348.414062 C 178.636719 348.339844 176.394531 348.226562 174.152344 348.078125 C 171.910156 347.929688 169.679688 347.742188 167.449219 347.519531 C 165.222656 347.292969 163.003906 347.035156 160.796875 346.734375 C 158.589844 346.4375 156.394531 346.105469 154.207031 345.734375 C 152.023438 345.363281 149.855469 344.957031 147.699219 344.515625 C 145.546875 344.070312 143.410156 343.59375 141.289062 343.082031 C 139.167969 342.566406 137.066406 342.019531 134.988281 341.433594 C 132.90625 340.851562 130.851562 340.234375 128.816406 339.582031 C 126.777344 338.929688 124.769531 338.246094 122.78125 337.527344 C 120.796875 336.808594 118.839844 336.054688 116.90625 335.273438 C 114.976562 334.488281 113.074219 333.671875 111.203125 332.828125 C 109.328125 331.980469 107.488281 331.101562 105.679688 330.195312 C 103.871094 329.285156 102.097656 328.347656 100.359375 327.378906 C 98.617188 326.414062 96.914062 325.417969 95.246094 324.394531 C 93.574219 323.371094 91.945312 322.320312 90.355469 321.242188 C 88.761719 320.164062 87.210938 319.058594 85.695312 317.929688 C 84.183594 316.800781 82.714844 315.644531 81.285156 314.46875 C 79.859375 313.289062 78.472656 312.085938 77.132812 310.863281 C 75.789062 309.636719 74.496094 308.390625 73.242188 307.125 C 71.992188 305.855469 70.789062 304.570312 69.628906 303.261719 C 68.472656 301.953125 67.363281 300.628906 66.300781 299.285156 C 65.242188 297.9375 64.230469 296.578125 63.265625 295.199219 C 62.304688 293.820312 61.390625 292.429688 60.53125 291.019531 C 59.667969 289.609375 58.859375 288.1875 58.097656 286.753906 C 57.339844 285.316406 56.632812 283.871094 55.980469 282.410156 C 55.328125 280.953125 54.726562 279.484375 54.179688 278.003906 C 53.632812 276.527344 53.140625 275.039062 52.699219 273.542969 C 52.261719 272.046875 51.875 270.546875 51.546875 269.039062 C 51.214844 267.53125 50.941406 266.019531 50.71875 264.5 C 50.5 262.984375 50.332031 261.464844 50.222656 259.941406 C 50.113281 258.417969 50.058594 256.894531 50.058594 255.371094 C 50.058594 253.84375 50.113281 252.320312 50.222656 250.800781 C 50.332031 249.277344 50.5 247.757812 50.71875 246.238281 C 50.941406 244.722656 51.214844 243.210938 51.546875 241.703125 C 51.875 240.191406 52.261719 238.691406 52.699219 237.195312 C 53.140625 235.699219 53.632812 234.214844 54.179688 232.734375 C 54.726562 231.257812 55.328125 229.789062 55.980469 228.328125 C 56.632812 226.871094 57.339844 225.421875 58.097656 223.988281 C 58.859375 222.550781 59.667969 221.128906 60.53125 219.722656 C 61.390625 218.3125 62.304688 216.917969 63.265625 215.539062 C 64.230469 214.164062 65.242188 212.800781 66.300781 211.457031 C 67.363281 210.113281 68.472656 208.785156 69.628906 207.476562 C 70.789062 206.171875 71.992188 204.882812 73.242188 203.617188 C 74.496094 202.347656 75.789062 201.101562 77.132812 199.878906 C 78.472656 198.652344 79.859375 197.449219 81.285156 196.273438 C 82.714844 195.09375 84.183594 193.941406 85.695312 192.808594 C 87.210938 191.679688 88.761719 190.578125 90.355469 189.5 C 91.945312 188.421875 93.574219 187.371094 95.246094 186.347656 C 96.914062 185.324219 98.617188 184.328125 100.359375 183.359375 C 102.097656 182.390625 103.871094 181.453125 105.679688 180.546875 C 107.488281 179.636719 109.328125 178.761719 111.203125 177.914062 C 113.074219 177.066406 114.976562 176.25 116.90625 175.46875 C 118.839844 174.683594 120.796875 173.933594 122.78125 173.214844 C 124.769531 172.496094 126.777344 171.808594 128.816406 171.15625 C 130.851562 170.507812 132.90625 169.890625 134.988281 169.304688 C 137.066406 168.722656 139.167969 168.171875 141.289062 167.660156 C 143.410156 167.144531 145.546875 166.667969 147.699219 166.226562 C 149.855469 165.78125 152.023438 165.375 154.207031 165.007812 C 156.394531 164.636719 158.589844 164.300781 160.796875 164.003906 C 163.003906 163.707031 165.222656 163.445312 167.449219 163.222656 C 169.679688 163 171.910156 162.8125 174.152344 162.664062 C 176.394531 162.511719 178.636719 162.402344 180.886719 162.328125 C 183.136719 162.25 185.386719 162.214844 187.636719 162.214844 C 189.890625 162.214844 192.140625 162.25 194.390625 162.328125 C 196.636719 162.402344 198.882812 162.511719 201.125 162.664062 C 203.363281 162.8125 205.597656 163 207.824219 163.222656 C 210.054688 163.445312 212.269531 163.707031 214.480469 164.003906 C 216.6875 164.300781 218.882812 164.636719 221.066406 165.007812 C 223.25 165.375 225.421875 165.78125 227.574219 166.226562 C 229.730469 166.667969 231.867188 167.144531 233.988281 167.660156 C 236.109375 168.171875 238.207031 168.722656 240.289062 169.304688 C 242.367188 169.890625 244.425781 170.507812 246.460938 171.160156 C 248.496094 171.808594 250.507812 172.496094 252.492188 173.214844 C 254.480469 173.933594 256.4375 174.683594 258.367188 175.46875 C 260.300781 176.25 262.203125 177.066406 264.074219 177.914062 C 265.945312 178.761719 267.785156 179.636719 269.59375 180.546875 C 271.402344 181.453125 273.179688 182.390625 274.917969 183.359375 C 276.660156 184.328125 278.363281 185.324219 280.03125 186.347656 C 281.699219 187.371094 283.332031 188.421875 284.921875 189.5 C 286.515625 190.578125 288.066406 191.679688 289.578125 192.808594 C 291.089844 193.941406 292.5625 195.09375 293.988281 196.273438 C 295.417969 197.453125 296.804688 198.652344 298.144531 199.878906 C 299.484375 201.101562 300.78125 202.347656 302.03125 203.617188 C 303.285156 204.882812 304.488281 206.171875 305.644531 207.476562 C 306.804688 208.785156 307.914062 210.113281 308.972656 211.457031 C 310.035156 212.800781 311.046875 214.164062 312.011719 215.539062 C 312.972656 216.917969 313.886719 218.3125 314.746094 219.722656 C 315.609375 221.128906 316.417969 222.550781 317.175781 223.988281 C 317.933594 225.421875 318.640625 226.871094 319.296875 228.328125 C 319.949219 229.789062 320.550781 231.257812 321.097656 232.734375 C 321.644531 234.214844 322.136719 235.699219 322.574219 237.195312 C 323.015625 238.691406 323.398438 240.191406 323.730469 241.703125 C 324.0625 243.210938 324.335938 244.722656 324.558594 246.238281 C 324.777344 247.757812 324.941406 249.277344 325.054688 250.800781 C 325.164062 252.320312 325.21875 253.84375 325.21875 255.371094 Z M 325.21875 255.371094 " fill-opacity="1" fill-rule="nonzero"/></g><path fill="#fabb69" d="M 330.335938 229.542969 C 330.335938 231.070312 330.277344 232.59375 330.164062 234.113281 C 330.046875 235.636719 329.875 237.15625 329.644531 238.675781 C 329.417969 240.191406 329.128906 241.703125 328.789062 243.214844 C 328.445312 244.722656 328.042969 246.222656 327.589844 247.71875 C 327.132812 249.214844 326.621094 250.699219 326.050781 252.179688 C 325.484375 253.660156 324.859375 255.128906 324.179688 256.585938 C 323.5 258.046875 322.769531 259.492188 321.980469 260.925781 C 321.191406 262.363281 320.351562 263.785156 319.457031 265.195312 C 318.558594 266.601562 317.613281 267.996094 316.613281 269.375 C 315.613281 270.753906 314.5625 272.113281 313.457031 273.457031 C 312.355469 274.800781 311.203125 276.128906 310 277.4375 C 308.796875 278.742188 307.546875 280.03125 306.246094 281.300781 C 304.949219 282.566406 303.601562 283.8125 302.207031 285.039062 C 300.816406 286.261719 299.375 287.464844 297.894531 288.640625 C 296.410156 289.820312 294.882812 290.976562 293.3125 292.105469 C 291.738281 293.234375 290.128906 294.339844 288.472656 295.417969 C 286.820312 296.492188 285.125 297.546875 283.394531 298.570312 C 281.660156 299.59375 279.890625 300.589844 278.082031 301.554688 C 276.273438 302.523438 274.429688 303.460938 272.550781 304.367188 C 270.671875 305.277344 268.761719 306.15625 266.816406 307 C 264.871094 307.847656 262.894531 308.664062 260.890625 309.449219 C 258.882812 310.230469 256.847656 310.984375 254.785156 311.703125 C 252.722656 312.421875 250.632812 313.105469 248.519531 313.757812 C 246.40625 314.410156 244.265625 315.027344 242.105469 315.609375 C 239.945312 316.195312 237.761719 316.742188 235.5625 317.253906 C 233.359375 317.769531 231.136719 318.246094 228.898438 318.691406 C 226.660156 319.132812 224.40625 319.539062 222.140625 319.910156 C 219.871094 320.28125 217.589844 320.613281 215.292969 320.910156 C 213 321.207031 210.695312 321.46875 208.382812 321.691406 C 206.070312 321.917969 203.75 322.101562 201.421875 322.253906 C 199.09375 322.402344 196.761719 322.515625 194.425781 322.589844 C 192.089844 322.664062 189.75 322.703125 187.410156 322.703125 C 185.074219 322.703125 182.734375 322.664062 180.398438 322.589844 C 178.0625 322.515625 175.730469 322.402344 173.402344 322.253906 C 171.074219 322.101562 168.753906 321.917969 166.441406 321.691406 C 164.128906 321.46875 161.824219 321.207031 159.527344 320.910156 C 157.234375 320.613281 154.953125 320.28125 152.683594 319.910156 C 150.414062 319.539062 148.160156 319.132812 145.921875 318.691406 C 143.683594 318.246094 141.464844 317.769531 139.261719 317.253906 C 137.058594 316.742188 134.878906 316.195312 132.71875 315.609375 C 130.558594 315.027344 128.417969 314.410156 126.304688 313.757812 C 124.191406 313.105469 122.101562 312.421875 120.039062 311.703125 C 117.976562 310.984375 115.941406 310.230469 113.933594 309.449219 C 111.929688 308.664062 109.953125 307.847656 108.007812 307 C 106.0625 306.15625 104.152344 305.277344 102.273438 304.367188 C 100.394531 303.460938 98.550781 302.523438 96.742188 301.554688 C 94.933594 300.589844 93.164062 299.59375 91.429688 298.570312 C 89.699219 297.546875 88.003906 296.492188 86.351562 295.417969 C 84.695312 294.339844 83.085938 293.234375 81.511719 292.105469 C 79.941406 290.976562 78.414062 289.820312 76.929688 288.640625 C 75.449219 287.464844 74.007812 286.261719 72.617188 285.039062 C 71.222656 283.8125 69.875 282.566406 68.574219 281.300781 C 67.277344 280.03125 66.027344 278.742188 64.824219 277.4375 C 63.621094 276.128906 62.46875 274.800781 61.367188 273.457031 C 60.261719 272.113281 59.210938 270.753906 58.210938 269.375 C 57.210938 267.996094 56.265625 266.601562 55.367188 265.195312 C 54.472656 263.785156 53.632812 262.363281 52.84375 260.925781 C 52.054688 259.492188 51.324219 258.046875 50.644531 256.585938 C 49.964844 255.128906 49.339844 253.660156 48.773438 252.179688 C 48.203125 250.699219 47.691406 249.214844 47.234375 247.71875 C 46.777344 246.222656 46.378906 244.722656 46.035156 243.214844 C 45.691406 241.703125 45.40625 240.191406 45.175781 238.675781 C 44.949219 237.15625 44.777344 235.636719 44.660156 234.113281 C 44.546875 232.59375 44.488281 231.070312 44.488281 229.542969 C 44.488281 228.019531 44.546875 226.496094 44.660156 224.972656 C 44.777344 223.449219 44.949219 221.929688 45.175781 220.414062 C 45.40625 218.894531 45.691406 217.382812 46.035156 215.875 C 46.378906 214.367188 46.777344 212.863281 47.234375 211.371094 C 47.691406 209.875 48.203125 208.386719 48.773438 206.910156 C 49.339844 205.429688 49.964844 203.960938 50.644531 202.5 C 51.324219 201.042969 52.054688 199.59375 52.84375 198.160156 C 53.632812 196.726562 54.472656 195.304688 55.367188 193.894531 C 56.265625 192.484375 57.210938 191.09375 58.210938 189.714844 C 59.210938 188.335938 60.261719 186.972656 61.367188 185.628906 C 62.46875 184.285156 63.621094 182.960938 64.824219 181.652344 C 66.027344 180.34375 67.277344 179.054688 68.574219 177.789062 C 69.875 176.519531 71.222656 175.273438 72.617188 174.050781 C 74.007812 172.824219 75.449219 171.625 76.929688 170.445312 C 78.414062 169.265625 79.941406 168.113281 81.511719 166.984375 C 83.085938 165.855469 84.695312 164.75 86.351562 163.671875 C 88.003906 162.59375 89.699219 161.542969 91.429688 160.519531 C 93.164062 159.496094 94.933594 158.5 96.742188 157.53125 C 98.550781 156.566406 100.394531 155.628906 102.273438 154.71875 C 104.152344 153.8125 106.0625 152.933594 108.007812 152.085938 C 109.953125 151.238281 111.929688 150.425781 113.933594 149.640625 C 115.941406 148.855469 117.976562 148.105469 120.039062 147.386719 C 122.101562 146.667969 124.191406 145.984375 126.304688 145.332031 C 128.417969 144.679688 130.558594 144.0625 132.71875 143.476562 C 134.878906 142.894531 137.058594 142.347656 139.261719 141.832031 C 141.464844 141.320312 143.683594 140.839844 145.921875 140.398438 C 148.160156 139.957031 150.414062 139.550781 152.683594 139.179688 C 154.953125 138.808594 157.234375 138.472656 159.527344 138.175781 C 161.824219 137.878906 164.128906 137.617188 166.441406 137.394531 C 168.753906 137.171875 171.074219 136.984375 173.402344 136.835938 C 175.730469 136.6875 178.0625 136.574219 180.398438 136.5 C 182.734375 136.425781 185.074219 136.386719 187.410156 136.386719 C 189.75 136.386719 192.089844 136.425781 194.425781 136.5 C 196.761719 136.574219 199.09375 136.6875 201.421875 136.835938 C 203.75 136.984375 206.070312 137.171875 208.382812 137.394531 C 210.695312 137.617188 213 137.878906 215.292969 138.175781 C 217.589844 138.472656 219.871094 138.808594 222.140625 139.179688 C 224.40625 139.550781 226.660156 139.957031 228.898438 140.398438 C 231.136719 140.839844 233.359375 141.320312 235.5625 141.832031 C 237.761719 142.347656 239.945312 142.894531 242.105469 143.476562 C 244.265625 144.0625 246.40625 144.679688 248.519531 145.332031 C 250.632812 145.984375 252.722656 146.667969 254.785156 147.386719 C 256.847656 148.105469 258.882812 148.855469 260.890625 149.640625 C 262.894531 150.425781 264.871094 151.238281 266.816406 152.085938 C 268.761719 152.933594 270.671875 153.8125 272.550781 154.71875 C 274.429688 155.628906 276.273438 156.566406 278.082031 157.53125 C 279.890625 158.5 281.660156 159.496094 283.394531 160.519531 C 285.125 161.542969 286.820312 162.59375 288.472656 163.671875 C 290.128906 164.75 291.738281 165.855469 293.3125 166.984375 C 294.882812 168.113281 296.410156 169.265625 297.894531 170.445312 C 299.375 171.625 300.816406 172.824219 302.207031 174.050781 C 303.601562 175.273438 304.949219 176.519531 306.246094 177.789062 C 307.546875 179.054688 308.796875 180.34375 310 181.652344 C 311.203125 182.960938 312.355469 184.285156 313.457031 185.628906 C 314.5625 186.972656 315.613281 188.335938 316.613281 189.714844 C 317.613281 191.09375 318.558594 192.484375 319.457031 193.894531 C 320.351562 195.304688 321.191406 196.726562 321.980469 198.160156 C 322.769531 199.59375 323.5 201.042969 324.179688 202.5 C 324.859375 203.960938 325.484375 205.429688 326.050781 206.910156 C 326.621094 208.386719 327.132812 209.875 327.589844 211.371094 C 328.042969 212.863281 328.445312 214.367188 328.789062 215.875 C 329.128906 217.382812 329.417969 218.894531 329.644531 220.414062 C 329.875 221.929688 330.046875 223.449219 330.164062 224.972656 C 330.277344 226.496094 330.335938 228.019531 330.335938 229.542969 Z M 330.335938 229.542969 " fill-opacity="1" fill-rule="nonzero"/><path fill="#d4dd6a" d="M 341.246094 196.855469 C 330.308594 177.089844 302.914062 167.777344 281.945312 160.421875 C 254.925781 150.945312 227.007812 142.671875 198.863281 136.582031 C 175.59375 131.542969 151.3125 128.742188 127.953125 134.890625 C 104.285156 141.117188 84.210938 155.160156 65.601562 169.570312 C 57.496094 175.847656 63.808594 180.59375 55.636719 186.785156 L 52.554688 188.550781 C 39.472656 189.488281 31.605469 201.003906 30 211.753906 C 27.652344 227.457031 33.25 246.449219 46.9375 256.714844 C 53.945312 261.972656 62.398438 265.15625 71.0625 267.242188 C 76.816406 268.625 83.046875 267.546875 88.578125 269.824219 C 93.90625 272.019531 97.523438 276.570312 100.703125 280.910156 C 105.320312 287.199219 110.59375 292.160156 117.492188 296.328125 C 130.683594 304.292969 146.660156 308.273438 162.359375 306.300781 C 180.472656 304.03125 195.375 293.785156 214.335938 294.875 C 232.128906 295.894531 248.75 298.703125 266.316406 293.984375 C 281.425781 289.929688 295.675781 282.269531 307.480469 272.691406 C 314.34375 267.125 320.78125 260.753906 326.425781 254.109375 C 339.574219 238.621094 352.023438 216.316406 341.246094 196.855469 Z M 341.246094 196.855469 " fill-opacity="1" fill-rule="nonzero"/><path fill="#8d2924" d="M 325.746094 213.996094 C 325.746094 215.464844 325.691406 216.933594 325.582031 218.402344 C 325.46875 219.875 325.304688 221.339844 325.082031 222.804688 C 324.863281 224.265625 324.585938 225.726562 324.253906 227.179688 C 323.921875 228.636719 323.539062 230.085938 323.097656 231.527344 C 322.65625 232.96875 322.164062 234.402344 321.613281 235.832031 C 321.066406 237.257812 320.464844 238.675781 319.808594 240.082031 C 319.15625 241.488281 318.445312 242.886719 317.6875 244.269531 C 316.925781 245.65625 316.113281 247.027344 315.25 248.386719 C 314.386719 249.746094 313.472656 251.089844 312.507812 252.417969 C 311.542969 253.746094 310.53125 255.0625 309.464844 256.359375 C 308.402344 257.65625 307.289062 258.933594 306.128906 260.195312 C 304.96875 261.457031 303.761719 262.699219 302.507812 263.921875 C 301.253906 265.144531 299.957031 266.347656 298.613281 267.53125 C 297.269531 268.710938 295.878906 269.871094 294.449219 271.007812 C 293.015625 272.144531 291.542969 273.257812 290.027344 274.347656 C 288.511719 275.4375 286.957031 276.5 285.363281 277.542969 C 283.765625 278.582031 282.132812 279.59375 280.460938 280.582031 C 278.789062 281.570312 277.082031 282.53125 275.335938 283.464844 C 273.59375 284.398438 271.8125 285.300781 270 286.179688 C 268.1875 287.054688 266.34375 287.902344 264.46875 288.71875 C 262.589844 289.535156 260.6875 290.320312 258.75 291.078125 C 256.816406 291.832031 254.851562 292.558594 252.863281 293.25 C 250.871094 293.945312 248.855469 294.605469 246.816406 295.234375 C 244.777344 295.863281 242.714844 296.460938 240.628906 297.023438 C 238.546875 297.585938 236.441406 298.113281 234.316406 298.609375 C 232.191406 299.105469 230.050781 299.566406 227.890625 299.992188 C 225.730469 300.421875 223.554688 300.8125 221.367188 301.171875 C 219.179688 301.527344 216.976562 301.851562 214.765625 302.136719 C 212.550781 302.421875 210.328125 302.675781 208.097656 302.890625 C 205.863281 303.105469 203.625 303.285156 201.378906 303.429688 C 199.132812 303.574219 196.882812 303.683594 194.628906 303.753906 C 192.375 303.828125 190.121094 303.863281 187.863281 303.863281 C 185.609375 303.863281 183.351562 303.828125 181.097656 303.753906 C 178.84375 303.683594 176.59375 303.574219 174.347656 303.429688 C 172.105469 303.285156 169.863281 303.105469 167.632812 302.890625 C 165.402344 302.675781 163.179688 302.421875 160.964844 302.136719 C 158.75 301.851562 156.550781 301.527344 154.363281 301.171875 C 152.171875 300.8125 150 300.421875 147.839844 299.992188 C 145.679688 299.566406 143.539062 299.105469 141.414062 298.609375 C 139.289062 298.113281 137.183594 297.585938 135.097656 297.023438 C 133.015625 296.460938 130.953125 295.863281 128.910156 295.234375 C 126.871094 294.605469 124.855469 293.945312 122.867188 293.253906 C 120.875 292.558594 118.914062 291.832031 116.980469 291.078125 C 115.042969 290.320312 113.136719 289.535156 111.261719 288.71875 C 109.382812 287.902344 107.539062 287.054688 105.726562 286.179688 C 103.914062 285.300781 102.136719 284.398438 100.394531 283.464844 C 98.648438 282.53125 96.941406 281.570312 95.269531 280.582031 C 93.597656 279.59375 91.960938 278.582031 90.367188 277.542969 C 88.769531 276.5 87.214844 275.4375 85.699219 274.347656 C 84.183594 273.257812 82.710938 272.144531 81.28125 271.007812 C 79.847656 269.871094 78.460938 268.710938 77.117188 267.53125 C 75.773438 266.347656 74.472656 265.144531 73.21875 263.921875 C 71.964844 262.699219 70.757812 261.457031 69.597656 260.195312 C 68.4375 258.933594 67.328125 257.65625 66.261719 256.359375 C 65.199219 255.0625 64.183594 253.746094 63.21875 252.417969 C 62.253906 251.089844 61.339844 249.746094 60.476562 248.386719 C 59.613281 247.027344 58.800781 245.65625 58.042969 244.269531 C 57.28125 242.886719 56.574219 241.488281 55.917969 240.082031 C 55.265625 238.675781 54.664062 237.257812 54.113281 235.832031 C 53.566406 234.402344 53.070312 232.96875 52.632812 231.527344 C 52.191406 230.085938 51.804688 228.636719 51.472656 227.179688 C 51.144531 225.726562 50.867188 224.265625 50.644531 222.804688 C 50.425781 221.339844 50.257812 219.875 50.148438 218.402344 C 50.039062 216.933594 49.980469 215.464844 49.980469 213.996094 C 49.980469 212.523438 50.039062 211.054688 50.148438 209.585938 C 50.257812 208.117188 50.425781 206.648438 50.644531 205.1875 C 50.867188 203.722656 51.144531 202.261719 51.472656 200.808594 C 51.804688 199.351562 52.191406 197.90625 52.632812 196.460938 C 53.070312 195.019531 53.566406 193.585938 54.113281 192.15625 C 54.664062 190.730469 55.265625 189.3125 55.917969 187.90625 C 56.574219 186.5 57.28125 185.101562 58.042969 183.71875 C 58.800781 182.332031 59.613281 180.960938 60.476562 179.601562 C 61.339844 178.246094 62.253906 176.898438 63.21875 175.570312 C 64.183594 174.242188 65.199219 172.929688 66.261719 171.628906 C 67.328125 170.332031 68.4375 169.054688 69.597656 167.792969 C 70.757812 166.53125 71.964844 165.289062 73.21875 164.066406 C 74.472656 162.84375 75.773438 161.640625 77.117188 160.460938 C 78.460938 159.277344 79.847656 158.121094 81.28125 156.980469 C 82.710938 155.84375 84.183594 154.730469 85.699219 153.640625 C 87.214844 152.550781 88.769531 151.488281 90.367188 150.449219 C 91.960938 149.40625 93.597656 148.394531 95.269531 147.40625 C 96.941406 146.417969 98.648438 145.457031 100.394531 144.523438 C 102.136719 143.59375 103.914062 142.6875 105.726562 141.8125 C 107.539062 140.933594 109.382812 140.089844 111.261719 139.269531 C 113.136719 138.453125 115.042969 137.667969 116.980469 136.910156 C 118.914062 136.15625 120.878906 135.429688 122.867188 134.738281 C 124.855469 134.042969 126.871094 133.382812 128.910156 132.753906 C 130.953125 132.125 133.015625 131.53125 135.097656 130.964844 C 137.183594 130.402344 139.289062 129.875 141.414062 129.378906 C 143.539062 128.882812 145.679688 128.421875 147.839844 127.996094 C 150 127.570312 152.171875 127.175781 154.363281 126.820312 C 156.550781 126.460938 158.75 126.140625 160.964844 125.851562 C 163.179688 125.566406 165.402344 125.3125 167.632812 125.097656 C 169.863281 124.882812 172.105469 124.703125 174.347656 124.558594 C 176.59375 124.414062 178.84375 124.304688 181.097656 124.234375 C 183.351562 124.160156 185.609375 124.125 187.863281 124.125 C 190.121094 124.125 192.375 124.160156 194.628906 124.234375 C 196.882812 124.304688 199.132812 124.414062 201.378906 124.558594 C 203.625 124.703125 205.863281 124.882812 208.097656 125.097656 C 210.328125 125.3125 212.550781 125.566406 214.765625 125.851562 C 216.976562 126.140625 219.179688 126.460938 221.367188 126.820312 C 223.554688 127.175781 225.730469 127.570312 227.890625 127.996094 C 230.050781 128.421875 232.191406 128.882812 234.316406 129.378906 C 236.441406 129.875 238.546875 130.402344 240.628906 130.964844 C 242.714844 131.53125 244.777344 132.125 246.816406 132.753906 C 248.855469 133.382812 250.871094 134.042969 252.863281 134.738281 C 254.851562 135.429688 256.816406 136.15625 258.75 136.910156 C 260.6875 137.667969 262.589844 138.453125 264.46875 139.269531 C 266.34375 140.089844 268.1875 140.933594 270 141.8125 C 271.8125 142.6875 273.59375 143.59375 275.335938 144.523438 C 277.082031 145.457031 278.789062 146.417969 280.460938 147.40625 C 282.132812 148.394531 283.765625 149.40625 285.363281 150.449219 C 286.957031 151.488281 288.511719 152.550781 290.027344 153.640625 C 291.542969 154.730469 293.015625 155.84375 294.449219 156.980469 C 295.878906 158.121094 297.269531 159.277344 298.613281 160.460938 C 299.957031 161.640625 301.253906 162.84375 302.507812 164.066406 C 303.761719 165.289062 304.96875 166.53125 306.128906 167.792969 C 307.289062 169.054688 308.402344 170.332031 309.464844 171.628906 C 310.53125 172.929688 311.542969 174.242188 312.507812 175.570312 C 313.472656 176.898438 314.386719 178.246094 315.25 179.601562 C 316.113281 180.960938 316.925781 182.332031 317.6875 183.71875 C 318.445312 185.101562 319.15625 186.5 319.808594 187.90625 C 320.464844 189.316406 321.066406 190.730469 321.613281 192.160156 C 322.164062 193.585938 322.65625 195.019531 323.097656 196.460938 C 323.539062 197.90625 323.921875 199.351562 324.253906 200.808594 C 324.585938 202.261719 324.863281 203.722656 325.082031 205.1875 C 325.304688 206.648438 325.46875 208.117188 325.582031 209.585938 C 325.691406 211.054688 325.746094 212.523438 325.746094 213.996094 Z M 325.746094 213.996094 " fill-opacity="1" fill-rule="nonzero"/><path fill="#e83f60" d="M 325.746094 197.027344 C 325.746094 198.496094 325.691406 199.96875 325.582031 201.4375 C 325.46875 202.90625 325.304688 204.371094 325.082031 205.835938 C 324.863281 207.300781 324.585938 208.757812 324.253906 210.214844 C 323.921875 211.667969 323.539062 213.117188 323.097656 214.558594 C 322.65625 216.003906 322.164062 217.4375 321.613281 218.863281 C 321.066406 220.289062 320.464844 221.707031 319.808594 223.113281 C 319.15625 224.523438 318.445312 225.917969 317.6875 227.304688 C 316.925781 228.6875 316.113281 230.058594 315.25 231.417969 C 314.386719 232.777344 313.472656 234.121094 312.507812 235.453125 C 311.542969 236.78125 310.53125 238.09375 309.464844 239.390625 C 308.402344 240.6875 307.289062 241.96875 306.128906 243.230469 C 304.96875 244.492188 303.761719 245.734375 302.507812 246.957031 C 301.253906 248.179688 299.957031 249.382812 298.613281 250.5625 C 297.269531 251.742188 295.878906 252.902344 294.449219 254.039062 C 293.015625 255.175781 291.542969 256.289062 290.027344 257.378906 C 288.511719 258.46875 286.957031 259.535156 285.363281 260.574219 C 283.765625 261.613281 282.132812 262.628906 280.460938 263.617188 C 278.789062 264.605469 277.082031 265.566406 275.335938 266.496094 C 273.59375 267.429688 271.8125 268.335938 270 269.210938 C 268.1875 270.085938 266.34375 270.933594 264.46875 271.75 C 262.589844 272.570312 260.6875 273.355469 258.75 274.109375 C 256.816406 274.867188 254.851562 275.59375 252.863281 276.285156 C 250.871094 276.980469 248.855469 277.640625 246.816406 278.269531 C 244.777344 278.898438 242.714844 279.492188 240.628906 280.054688 C 238.546875 280.617188 236.441406 281.148438 234.316406 281.644531 C 232.191406 282.140625 230.050781 282.601562 227.890625 283.027344 C 225.730469 283.453125 223.554688 283.847656 221.367188 284.203125 C 219.179688 284.5625 216.976562 284.882812 214.765625 285.171875 C 212.550781 285.457031 210.328125 285.707031 208.097656 285.925781 C 205.863281 286.140625 203.625 286.320312 201.378906 286.464844 C 199.132812 286.609375 196.882812 286.71875 194.628906 286.789062 C 192.375 286.859375 190.121094 286.898438 187.863281 286.898438 C 185.609375 286.898438 183.351562 286.859375 181.097656 286.789062 C 178.84375 286.71875 176.59375 286.609375 174.347656 286.464844 C 172.105469 286.320312 169.863281 286.140625 167.632812 285.925781 C 165.402344 285.707031 163.179688 285.457031 160.964844 285.171875 C 158.75 284.882812 156.550781 284.5625 154.363281 284.203125 C 152.171875 283.847656 150 283.453125 147.839844 283.027344 C 145.679688 282.601562 143.539062 282.140625 141.414062 281.644531 C 139.289062 281.148438 137.183594 280.617188 135.097656 280.054688 C 133.015625 279.492188 130.953125 278.898438 128.910156 278.269531 C 126.871094 277.640625 124.855469 276.980469 122.867188 276.285156 C 120.875 275.59375 118.914062 274.867188 116.980469 274.109375 C 115.042969 273.355469 113.136719 272.570312 111.261719 271.75 C 109.382812 270.933594 107.539062 270.085938 105.726562 269.210938 C 103.914062 268.335938 102.136719 267.429688 100.394531 266.496094 C 98.648438 265.566406 96.941406 264.605469 95.269531 263.617188 C 93.597656 262.628906 91.960938 261.613281 90.367188 260.574219 C 88.769531 259.535156 87.214844 258.46875 85.699219 257.378906 C 84.183594 256.289062 82.710938 255.175781 81.28125 254.039062 C 79.847656 252.902344 78.460938 251.742188 77.117188 250.5625 C 75.773438 249.382812 74.472656 248.179688 73.21875 246.957031 C 71.964844 245.734375 70.757812 244.492188 69.597656 243.230469 C 68.4375 241.96875 67.328125 240.6875 66.261719 239.390625 C 65.199219 238.09375 64.183594 236.78125 63.21875 235.453125 C 62.253906 234.121094 61.339844 232.777344 60.476562 231.417969 C 59.613281 230.058594 58.800781 228.6875 58.042969 227.304688 C 57.28125 225.917969 56.574219 224.523438 55.917969 223.113281 C 55.265625 221.707031 54.664062 220.289062 54.113281 218.863281 C 53.566406 217.4375 53.070312 216.003906 52.632812 214.558594 C 52.191406 213.117188 51.804688 211.667969 51.472656 210.214844 C 51.144531 208.757812 50.867188 207.300781 50.644531 205.835938 C 50.425781 204.371094 50.257812 202.90625 50.148438 201.4375 C 50.039062 199.96875 49.980469 198.496094 49.980469 197.027344 C 49.980469 195.554688 50.039062 194.085938 50.148438 192.617188 C 50.257812 191.148438 50.425781 189.683594 50.644531 188.21875 C 50.867188 186.753906 51.144531 185.296875 51.472656 183.839844 C 51.804688 182.386719 52.191406 180.9375 52.632812 179.492188 C 53.070312 178.050781 53.566406 176.617188 54.113281 175.191406 C 54.664062 173.761719 55.265625 172.347656 55.917969 170.9375 C 56.574219 169.53125 57.28125 168.136719 58.042969 166.75 C 58.800781 165.367188 59.613281 163.992188 60.476562 162.636719 C 61.339844 161.277344 62.253906 159.933594 63.21875 158.601562 C 64.183594 157.273438 65.199219 155.960938 66.261719 154.664062 C 67.328125 153.363281 68.4375 152.085938 69.597656 150.824219 C 70.757812 149.5625 71.964844 148.320312 73.21875 147.097656 C 74.472656 145.875 75.773438 144.671875 77.117188 143.492188 C 78.460938 142.308594 79.847656 141.152344 81.28125 140.015625 C 82.710938 138.875 84.183594 137.761719 85.699219 136.671875 C 87.214844 135.582031 88.769531 134.519531 90.367188 133.480469 C 91.960938 132.4375 93.597656 131.425781 95.269531 130.4375 C 96.941406 129.449219 98.648438 128.488281 100.394531 127.554688 C 102.136719 126.625 103.914062 125.71875 105.726562 124.84375 C 107.539062 123.964844 109.382812 123.121094 111.261719 122.300781 C 113.136719 121.484375 115.042969 120.699219 116.980469 119.941406 C 118.914062 119.1875 120.878906 118.460938 122.867188 117.769531 C 124.855469 117.074219 126.871094 116.414062 128.910156 115.785156 C 130.953125 115.15625 133.015625 114.558594 135.097656 113.996094 C 137.183594 113.433594 139.289062 112.90625 141.414062 112.410156 C 143.539062 111.914062 145.679688 111.453125 147.839844 111.027344 C 150 110.597656 152.171875 110.207031 154.363281 109.851562 C 156.550781 109.492188 158.75 109.171875 160.964844 108.882812 C 163.179688 108.597656 165.402344 108.34375 167.632812 108.128906 C 169.863281 107.914062 172.105469 107.734375 174.347656 107.589844 C 176.59375 107.445312 178.84375 107.335938 181.097656 107.265625 C 183.351562 107.191406 185.609375 107.15625 187.863281 107.15625 C 190.121094 107.15625 192.375 107.191406 194.628906 107.265625 C 196.882812 107.335938 199.132812 107.445312 201.378906 107.589844 C 203.625 107.734375 205.863281 107.914062 208.097656 108.128906 C 210.328125 108.34375 212.550781 108.597656 214.765625 108.882812 C 216.976562 109.171875 219.179688 109.492188 221.367188 109.851562 C 223.554688 110.207031 225.730469 110.597656 227.890625 111.027344 C 230.050781 111.453125 232.191406 111.914062 234.316406 112.410156 C 236.441406 112.90625 238.546875 113.433594 240.628906 113.996094 C 242.714844 114.558594 244.777344 115.15625 246.816406 115.785156 C 248.855469 116.414062 250.871094 117.074219 252.863281 117.769531 C 254.851562 118.460938 256.816406 119.1875 258.75 119.941406 C 260.6875 120.699219 262.589844 121.484375 264.46875 122.300781 C 266.34375 123.121094 268.1875 123.964844 270 124.84375 C 271.8125 125.71875 273.59375 126.625 275.335938 127.554688 C 277.082031 128.488281 278.789062 129.449219 280.460938 130.4375 C 282.132812 131.425781 283.765625 132.4375 285.363281 133.480469 C 286.957031 134.519531 288.511719 135.582031 290.027344 136.671875 C 291.542969 137.761719 293.015625 138.875 294.449219 140.015625 C 295.878906 141.152344 297.269531 142.308594 298.613281 143.492188 C 299.957031 144.671875 301.253906 145.875 302.507812 147.097656 C 303.761719 148.320312 304.96875 149.5625 306.128906 150.824219 C 307.289062 152.085938 308.402344 153.363281 309.464844 154.664062 C 310.53125 155.960938 311.542969 157.273438 312.507812 158.601562 C 313.472656 159.933594 314.386719 161.277344 315.25 162.636719 C 316.113281 163.992188 316.925781 165.367188 317.6875 166.75 C 318.445312 168.136719 319.15625 169.53125 319.808594 170.9375 C 320.464844 172.347656 321.066406 173.761719 321.613281 175.191406 C 322.164062 176.617188 322.65625 178.050781 323.097656 179.492188 C 323.539062 180.9375 323.921875 182.386719 324.253906 183.839844 C 324.585938 185.296875 324.863281 186.753906 325.082031 188.21875 C 325.304688 189.683594 325.46875 191.148438 325.582031 192.617188 C 325.691406 194.085938 325.746094 195.554688 325.746094 197.027344 Z M 325.746094 197.027344 " fill-opacity="1" fill-rule="nonzero"/><g clip-path="url(#id2)"><path fill="#fed693" d="M 10.347656 197.496094 L 187.410156 299.277344 L 364.476562 197.140625 L 187.410156 95.90625 Z M 10.347656 197.496094 " fill-opacity="1" fill-rule="nonzero"/></g><path fill="#fabb69" d="M 330.785156 181.238281 C 330.785156 182.652344 330.730469 184.058594 330.613281 185.46875 C 330.5 186.878906 330.328125 188.285156 330.097656 189.6875 C 329.871094 191.09375 329.582031 192.492188 329.238281 193.886719 C 328.898438 195.28125 328.496094 196.671875 328.039062 198.054688 C 327.585938 199.4375 327.070312 200.816406 326.503906 202.183594 C 325.9375 203.550781 325.3125 204.910156 324.632812 206.261719 C 323.953125 207.609375 323.21875 208.949219 322.433594 210.277344 C 321.644531 211.605469 320.804688 212.921875 319.90625 214.226562 C 319.011719 215.527344 318.066406 216.816406 317.066406 218.09375 C 316.066406 219.367188 315.011719 220.628906 313.910156 221.871094 C 312.808594 223.117188 311.65625 224.34375 310.453125 225.550781 C 309.25 226.761719 308 227.953125 306.699219 229.125 C 305.402344 230.300781 304.054688 231.453125 302.660156 232.585938 C 301.269531 233.71875 299.828125 234.832031 298.34375 235.921875 C 296.859375 237.011719 295.332031 238.078125 293.761719 239.125 C 292.191406 240.167969 290.578125 241.191406 288.925781 242.1875 C 287.273438 243.1875 285.578125 244.15625 283.84375 245.105469 C 282.113281 246.050781 280.339844 246.972656 278.535156 247.867188 C 276.726562 248.761719 274.882812 249.632812 273.003906 250.472656 C 271.125 251.3125 269.210938 252.125 267.269531 252.90625 C 265.324219 253.691406 263.347656 254.445312 261.339844 255.171875 C 259.335938 255.894531 257.300781 256.589844 255.238281 257.257812 C 253.175781 257.921875 251.085938 258.554688 248.972656 259.15625 C 246.855469 259.761719 244.71875 260.332031 242.558594 260.871094 C 240.398438 261.414062 238.214844 261.921875 236.011719 262.394531 C 233.8125 262.871094 231.589844 263.3125 229.351562 263.722656 C 227.113281 264.132812 224.859375 264.507812 222.589844 264.851562 C 220.324219 265.195312 218.042969 265.503906 215.746094 265.777344 C 213.453125 266.054688 211.148438 266.292969 208.835938 266.5 C 206.523438 266.707031 204.199219 266.878906 201.875 267.019531 C 199.546875 267.15625 197.214844 267.261719 194.878906 267.328125 C 192.542969 267.398438 190.203125 267.433594 187.863281 267.433594 C 185.523438 267.433594 183.1875 267.398438 180.851562 267.328125 C 178.515625 267.261719 176.183594 267.15625 173.855469 267.019531 C 171.527344 266.878906 169.207031 266.707031 166.894531 266.5 C 164.578125 266.292969 162.277344 266.054688 159.980469 265.777344 C 157.6875 265.503906 155.40625 265.195312 153.136719 264.851562 C 150.867188 264.507812 148.613281 264.132812 146.375 263.722656 C 144.136719 263.3125 141.917969 262.871094 139.714844 262.394531 C 137.511719 261.921875 135.332031 261.414062 133.171875 260.871094 C 131.007812 260.332031 128.871094 259.761719 126.757812 259.15625 C 124.644531 258.554688 122.554688 257.921875 120.492188 257.257812 C 118.429688 256.589844 116.394531 255.894531 114.386719 255.171875 C 112.382812 254.445312 110.40625 253.691406 108.460938 252.90625 C 106.515625 252.125 104.605469 251.3125 102.726562 250.472656 C 100.847656 249.632812 99.003906 248.761719 97.195312 247.867188 C 95.386719 246.972656 93.617188 246.050781 91.882812 245.105469 C 90.148438 244.15625 88.457031 243.1875 86.804688 242.1875 C 85.148438 241.191406 83.535156 240.167969 81.964844 239.125 C 80.394531 238.078125 78.867188 237.011719 77.382812 235.921875 C 75.898438 234.832031 74.460938 233.71875 73.066406 232.585938 C 71.675781 231.453125 70.328125 230.300781 69.027344 229.125 C 67.730469 227.953125 66.476562 226.761719 65.277344 225.550781 C 64.074219 224.34375 62.921875 223.117188 61.816406 221.871094 C 60.714844 220.628906 59.664062 219.367188 58.664062 218.09375 C 57.664062 216.816406 56.714844 215.527344 55.820312 214.226562 C 54.925781 212.921875 54.085938 211.605469 53.296875 210.277344 C 52.507812 208.949219 51.773438 207.609375 51.097656 206.261719 C 50.417969 204.910156 49.792969 203.550781 49.226562 202.183594 C 48.65625 200.816406 48.144531 199.4375 47.6875 198.054688 C 47.230469 196.671875 46.832031 195.28125 46.488281 193.886719 C 46.144531 192.492188 45.859375 191.09375 45.628906 189.6875 C 45.402344 188.285156 45.230469 186.878906 45.113281 185.46875 C 45 184.058594 44.941406 182.652344 44.941406 181.238281 C 44.941406 179.828125 45 178.417969 45.113281 177.011719 C 45.230469 175.601562 45.402344 174.195312 45.628906 172.792969 C 45.859375 171.386719 46.144531 169.988281 46.488281 168.59375 C 46.832031 167.195312 47.230469 165.808594 47.6875 164.425781 C 48.144531 163.039062 48.65625 161.664062 49.226562 160.296875 C 49.792969 158.929688 50.417969 157.570312 51.097656 156.21875 C 51.773438 154.867188 52.507812 153.53125 53.296875 152.203125 C 54.085938 150.875 54.925781 149.558594 55.820312 148.253906 C 56.714844 146.953125 57.664062 145.664062 58.664062 144.386719 C 59.664062 143.113281 60.714844 141.851562 61.816406 140.609375 C 62.921875 139.363281 64.074219 138.136719 65.277344 136.925781 C 66.476562 135.71875 67.730469 134.527344 69.027344 133.351562 C 70.328125 132.179688 71.675781 131.027344 73.066406 129.894531 C 74.460938 128.761719 75.898438 127.648438 77.382812 126.558594 C 78.867188 125.46875 80.394531 124.402344 81.964844 123.355469 C 83.535156 122.308594 85.148438 121.289062 86.804688 120.292969 C 88.457031 119.292969 90.148438 118.320312 91.882812 117.375 C 93.617188 116.425781 95.386719 115.503906 97.195312 114.609375 C 99.003906 113.714844 100.847656 112.847656 102.726562 112.007812 C 104.605469 111.167969 106.515625 110.355469 108.460938 109.570312 C 110.40625 108.789062 112.382812 108.035156 114.386719 107.308594 C 116.394531 106.582031 118.429688 105.886719 120.492188 105.222656 C 122.554688 104.558594 124.644531 103.925781 126.757812 103.320312 C 128.871094 102.71875 131.007812 102.148438 133.171875 101.605469 C 135.332031 101.066406 137.511719 100.558594 139.714844 100.085938 C 141.917969 99.609375 144.136719 99.167969 146.375 98.757812 C 148.613281 98.347656 150.867188 97.972656 153.136719 97.628906 C 155.40625 97.285156 157.6875 96.976562 159.980469 96.703125 C 162.277344 96.425781 164.578125 96.1875 166.894531 95.980469 C 169.207031 95.773438 171.527344 95.597656 173.855469 95.460938 C 176.183594 95.324219 178.515625 95.21875 180.851562 95.148438 C 183.1875 95.082031 185.523438 95.046875 187.863281 95.046875 C 190.203125 95.046875 192.542969 95.082031 194.878906 95.148438 C 197.214844 95.21875 199.546875 95.324219 201.875 95.460938 C 204.199219 95.597656 206.523438 95.773438 208.835938 95.980469 C 211.148438 96.1875 213.453125 96.425781 215.746094 96.703125 C 218.042969 96.976562 220.324219 97.285156 222.589844 97.628906 C 224.859375 97.972656 227.113281 98.347656 229.351562 98.757812 C 231.589844 99.167969 233.8125 99.609375 236.011719 100.085938 C 238.214844 100.558594 240.398438 101.066406 242.558594 101.605469 C 244.71875 102.148438 246.855469 102.71875 248.972656 103.320312 C 251.085938 103.925781 253.175781 104.558594 255.238281 105.222656 C 257.300781 105.886719 259.335938 106.582031 261.339844 107.308594 C 263.347656 108.035156 265.324219 108.789062 267.269531 109.570312 C 269.210938 110.355469 271.125 111.167969 273.003906 112.007812 C 274.882812 112.847656 276.726562 113.714844 278.535156 114.609375 C 280.339844 115.503906 282.113281 116.425781 283.84375 117.375 C 285.578125 118.320312 287.273438 119.292969 288.925781 120.292969 C 290.578125 121.289062 292.191406 122.308594 293.761719 123.355469 C 295.332031 124.402344 296.859375 125.46875 298.34375 126.558594 C 299.828125 127.648438 301.269531 128.761719 302.660156 129.894531 C 304.054688 131.027344 305.402344 132.179688 306.699219 133.351562 C 308 134.527344 309.25 135.71875 310.453125 136.925781 C 311.65625 138.136719 312.808594 139.363281 313.910156 140.609375 C 315.011719 141.851562 316.066406 143.113281 317.066406 144.386719 C 318.066406 145.664062 319.011719 146.953125 319.90625 148.253906 C 320.804688 149.558594 321.644531 150.875 322.433594 152.203125 C 323.21875 153.53125 323.953125 154.867188 324.632812 156.21875 C 325.3125 157.570312 325.9375 158.929688 326.503906 160.296875 C 327.070312 161.664062 327.585938 163.039062 328.039062 164.425781 C 328.496094 165.808594 328.898438 167.195312 329.238281 168.59375 C 329.582031 169.988281 329.871094 171.386719 330.097656 172.792969 C 330.328125 174.195312 330.5 175.601562 330.613281 177.011719 C 330.730469 178.417969 330.785156 179.828125 330.785156 181.238281 Z M 330.785156 181.238281 " fill-opacity="1" fill-rule="nonzero"/><g clip-path="url(#id3)"><path fill="#ea9052" d="M 330.789062 160.300781 C 330.789062 222.445312 266.574219 251.761719 187.636719 251.761719 C 108.703125 251.761719 44.941406 222.445312 44.941406 160.300781 C 44.941406 98.160156 108.703125 26.726562 187.636719 26.726562 C 266.574219 26.726562 330.789062 98.160156 330.789062 160.300781 Z M 330.789062 160.300781 " fill-opacity="1" fill-rule="nonzero"/></g><path fill="#fabb69" d="M 214.214844 60.457031 C 214.214844 60.953125 214.160156 61.441406 214.058594 61.929688 C 213.953125 62.414062 213.796875 62.886719 213.59375 63.34375 C 213.390625 63.800781 213.136719 64.238281 212.839844 64.648438 C 212.542969 65.0625 212.207031 65.441406 211.828125 65.792969 C 211.449219 66.144531 211.039062 66.457031 210.59375 66.730469 C 210.152344 67.007812 209.679688 67.238281 209.1875 67.429688 C 208.695312 67.617188 208.183594 67.761719 207.660156 67.859375 C 207.136719 67.953125 206.605469 68.003906 206.070312 68.003906 C 205.539062 68.003906 205.007812 67.953125 204.484375 67.859375 C 203.960938 67.761719 203.449219 67.617188 202.957031 67.429688 C 202.460938 67.238281 201.992188 67.007812 201.550781 66.730469 C 201.105469 66.457031 200.695312 66.144531 200.316406 65.792969 C 199.9375 65.441406 199.601562 65.0625 199.304688 64.648438 C 199.007812 64.238281 198.753906 63.800781 198.550781 63.34375 C 198.347656 62.886719 198.191406 62.414062 198.085938 61.929688 C 197.984375 61.441406 197.929688 60.953125 197.929688 60.457031 C 197.929688 59.960938 197.984375 59.472656 198.085938 58.984375 C 198.191406 58.5 198.347656 58.027344 198.550781 57.570312 C 198.753906 57.113281 199.007812 56.675781 199.304688 56.265625 C 199.601562 55.851562 199.9375 55.472656 200.316406 55.121094 C 200.695312 54.769531 201.105469 54.457031 201.550781 54.183594 C 201.992188 53.90625 202.460938 53.675781 202.957031 53.484375 C 203.449219 53.296875 203.960938 53.152344 204.484375 53.054688 C 205.007812 52.960938 205.539062 52.910156 206.070312 52.910156 C 206.605469 52.910156 207.136719 52.960938 207.660156 53.054688 C 208.183594 53.152344 208.695312 53.296875 209.1875 53.484375 C 209.679688 53.675781 210.152344 53.90625 210.59375 54.183594 C 211.039062 54.457031 211.449219 54.769531 211.828125 55.121094 C 212.207031 55.472656 212.542969 55.851562 212.839844 56.265625 C 213.136719 56.675781 213.390625 57.113281 213.59375 57.570312 C 213.796875 58.027344 213.953125 58.5 214.058594 58.984375 C 214.160156 59.472656 214.214844 59.960938 214.214844 60.457031 Z M 214.214844 60.457031 " fill-opacity="1" fill-rule="nonzero"/><path fill="#fabb69" d="M 281.007812 85.859375 C 281.007812 86.355469 280.957031 86.84375 280.851562 87.332031 C 280.746094 87.816406 280.59375 88.289062 280.390625 88.746094 C 280.183594 89.203125 279.933594 89.636719 279.636719 90.050781 C 279.339844 90.460938 279.003906 90.84375 278.625 91.191406 C 278.246094 91.542969 277.835938 91.855469 277.390625 92.132812 C 276.945312 92.40625 276.476562 92.636719 275.984375 92.828125 C 275.488281 93.019531 274.980469 93.160156 274.457031 93.257812 C 273.929688 93.355469 273.402344 93.402344 272.867188 93.402344 C 272.332031 93.402344 271.804688 93.355469 271.277344 93.257812 C 270.753906 93.160156 270.246094 93.019531 269.75 92.828125 C 269.257812 92.636719 268.789062 92.40625 268.34375 92.132812 C 267.898438 91.855469 267.488281 91.542969 267.109375 91.191406 C 266.734375 90.84375 266.394531 90.460938 266.097656 90.050781 C 265.800781 89.636719 265.550781 89.203125 265.347656 88.746094 C 265.140625 88.289062 264.988281 87.816406 264.882812 87.332031 C 264.777344 86.84375 264.726562 86.355469 264.726562 85.859375 C 264.726562 85.363281 264.777344 84.875 264.882812 84.386719 C 264.988281 83.902344 265.140625 83.429688 265.347656 82.972656 C 265.550781 82.515625 265.800781 82.082031 266.097656 81.667969 C 266.394531 81.257812 266.734375 80.875 267.109375 80.523438 C 267.488281 80.175781 267.898438 79.863281 268.34375 79.585938 C 268.789062 79.3125 269.257812 79.078125 269.75 78.890625 C 270.246094 78.699219 270.753906 78.558594 271.277344 78.460938 C 271.804688 78.363281 272.332031 78.316406 272.867188 78.316406 C 273.402344 78.316406 273.929688 78.363281 274.457031 78.460938 C 274.980469 78.558594 275.488281 78.699219 275.984375 78.890625 C 276.476562 79.078125 276.945312 79.3125 277.390625 79.585938 C 277.835938 79.863281 278.246094 80.175781 278.625 80.523438 C 279.003906 80.875 279.339844 81.257812 279.636719 81.667969 C 279.933594 82.082031 280.183594 82.515625 280.390625 82.972656 C 280.59375 83.429688 280.746094 83.902344 280.851562 84.386719 C 280.957031 84.875 281.007812 85.363281 281.007812 85.859375 Z M 281.007812 85.859375 " fill-opacity="1" fill-rule="nonzero"/><path fill="#fabb69" d="M 127.46875 70.769531 C 127.46875 71.265625 127.417969 71.753906 127.3125 72.242188 C 127.207031 72.726562 127.054688 73.199219 126.847656 73.65625 C 126.644531 74.113281 126.394531 74.550781 126.097656 74.960938 C 125.800781 75.371094 125.460938 75.753906 125.082031 76.105469 C 124.707031 76.453125 124.292969 76.765625 123.851562 77.042969 C 123.40625 77.316406 122.9375 77.550781 122.441406 77.738281 C 121.949219 77.929688 121.441406 78.074219 120.914062 78.167969 C 120.390625 78.265625 119.863281 78.316406 119.328125 78.316406 C 118.792969 78.316406 118.261719 78.265625 117.738281 78.167969 C 117.214844 78.074219 116.707031 77.929688 116.210938 77.738281 C 115.71875 77.550781 115.25 77.316406 114.804688 77.042969 C 114.359375 76.765625 113.949219 76.453125 113.570312 76.105469 C 113.191406 75.753906 112.855469 75.371094 112.558594 74.960938 C 112.261719 74.550781 112.011719 74.113281 111.804688 73.65625 C 111.601562 73.199219 111.445312 72.726562 111.34375 72.242188 C 111.238281 71.753906 111.1875 71.265625 111.1875 70.769531 C 111.1875 70.273438 111.238281 69.78125 111.34375 69.296875 C 111.445312 68.808594 111.601562 68.339844 111.804688 67.882812 C 112.011719 67.421875 112.261719 66.988281 112.558594 66.578125 C 112.855469 66.164062 113.191406 65.78125 113.570312 65.433594 C 113.949219 65.082031 114.359375 64.769531 114.804688 64.496094 C 115.25 64.21875 115.71875 63.988281 116.210938 63.796875 C 116.707031 63.605469 117.214844 63.464844 117.738281 63.367188 C 118.261719 63.269531 118.792969 63.222656 119.328125 63.222656 C 119.863281 63.222656 120.390625 63.269531 120.914062 63.367188 C 121.441406 63.464844 121.949219 63.605469 122.441406 63.796875 C 122.9375 63.988281 123.40625 64.21875 123.851562 64.496094 C 124.292969 64.769531 124.707031 65.082031 125.082031 65.433594 C 125.460938 65.78125 125.800781 66.164062 126.097656 66.578125 C 126.394531 66.988281 126.644531 67.421875 126.847656 67.882812 C 127.054688 68.339844 127.207031 68.808594 127.3125 69.296875 C 127.417969 69.78125 127.46875 70.273438 127.46875 70.769531 Z M 127.46875 70.769531 " fill-opacity="1" fill-rule="nonzero"/><path fill="#fabb69" d="M 127.46875 190.519531 C 127.46875 191.015625 127.417969 191.503906 127.3125 191.992188 C 127.207031 192.476562 127.054688 192.949219 126.847656 193.40625 C 126.644531 193.863281 126.394531 194.300781 126.097656 194.710938 C 125.800781 195.125 125.460938 195.503906 125.082031 195.855469 C 124.707031 196.207031 124.292969 196.519531 123.851562 196.792969 C 123.40625 197.070312 122.9375 197.300781 122.441406 197.492188 C 121.949219 197.679688 121.441406 197.824219 120.914062 197.921875 C 120.390625 198.015625 119.863281 198.066406 119.328125 198.066406 C 118.792969 198.066406 118.261719 198.015625 117.738281 197.921875 C 117.214844 197.824219 116.707031 197.679688 116.210938 197.492188 C 115.71875 197.300781 115.25 197.070312 114.804688 196.792969 C 114.359375 196.519531 113.949219 196.207031 113.570312 195.855469 C 113.191406 195.503906 112.855469 195.125 112.558594 194.710938 C 112.261719 194.300781 112.011719 193.863281 111.804688 193.40625 C 111.601562 192.949219 111.445312 192.476562 111.34375 191.992188 C 111.238281 191.503906 111.1875 191.015625 111.1875 190.519531 C 111.1875 190.023438 111.238281 189.535156 111.34375 189.046875 C 111.445312 188.5625 111.601562 188.089844 111.804688 187.632812 C 112.011719 187.175781 112.261719 186.738281 112.558594 186.328125 C 112.855469 185.914062 113.191406 185.535156 113.570312 185.183594 C 113.949219 184.832031 114.359375 184.519531 114.804688 184.246094 C 115.25 183.96875 115.71875 183.738281 116.210938 183.546875 C 116.707031 183.359375 117.214844 183.214844 117.738281 183.117188 C 118.261719 183.023438 118.792969 182.972656 119.328125 182.972656 C 119.863281 182.972656 120.390625 183.023438 120.914062 183.117188 C 121.441406 183.214844 121.949219 183.359375 122.441406 183.546875 C 122.9375 183.738281 123.40625 183.96875 123.851562 184.246094 C 124.292969 184.519531 124.707031 184.832031 125.082031 185.183594 C 125.460938 185.535156 125.800781 185.914062 126.097656 186.328125 C 126.394531 186.738281 126.644531 187.175781 126.847656 187.632812 C 127.054688 188.089844 127.207031 188.5625 127.3125 189.046875 C 127.417969 189.535156 127.46875 190.023438 127.46875 190.519531 Z M 127.46875 190.519531 " fill-opacity="1" fill-rule="nonzero"/><path fill="#fabb69" d="M 222.351562 198.0625 C 222.351562 198.558594 222.300781 199.050781 222.195312 199.535156 C 222.09375 200.023438 221.9375 200.492188 221.734375 200.953125 C 221.527344 201.410156 221.277344 201.84375 220.980469 202.257812 C 220.683594 202.667969 220.347656 203.050781 219.96875 203.398438 C 219.589844 203.75 219.179688 204.0625 218.734375 204.339844 C 218.292969 204.613281 217.820312 204.847656 217.328125 205.035156 C 216.835938 205.226562 216.324219 205.367188 215.800781 205.464844 C 215.277344 205.5625 214.746094 205.609375 214.214844 205.609375 C 213.679688 205.609375 213.148438 205.5625 212.625 205.464844 C 212.101562 205.367188 211.59375 205.226562 211.097656 205.035156 C 210.605469 204.847656 210.136719 204.613281 209.691406 204.339844 C 209.246094 204.0625 208.835938 203.75 208.457031 203.398438 C 208.078125 203.050781 207.742188 202.667969 207.445312 202.257812 C 207.148438 201.84375 206.898438 201.410156 206.691406 200.953125 C 206.488281 200.492188 206.335938 200.023438 206.230469 199.535156 C 206.125 199.050781 206.074219 198.558594 206.074219 198.0625 C 206.074219 197.570312 206.125 197.078125 206.230469 196.59375 C 206.335938 196.105469 206.488281 195.632812 206.691406 195.175781 C 206.898438 194.71875 207.148438 194.285156 207.445312 193.871094 C 207.742188 193.460938 208.078125 193.078125 208.457031 192.726562 C 208.835938 192.378906 209.246094 192.066406 209.691406 191.789062 C 210.136719 191.515625 210.605469 191.28125 211.097656 191.09375 C 211.59375 190.902344 212.101562 190.761719 212.625 190.664062 C 213.148438 190.566406 213.679688 190.519531 214.214844 190.519531 C 214.746094 190.519531 215.277344 190.566406 215.800781 190.664062 C 216.324219 190.761719 216.835938 190.902344 217.328125 191.09375 C 217.820312 191.28125 218.292969 191.515625 218.734375 191.789062 C 219.179688 192.066406 219.589844 192.378906 219.96875 192.726562 C 220.347656 193.078125 220.683594 193.460938 220.980469 193.871094 C 221.277344 194.285156 221.527344 194.71875 221.734375 195.175781 C 221.9375 195.632812 222.09375 196.105469 222.195312 196.59375 C 222.300781 197.078125 222.351562 197.570312 222.351562 198.0625 Z M 222.351562 198.0625 " fill-opacity="1" fill-rule="nonzero"/><path fill="#fabb69" d="M 85.941406 131.375 C 85.941406 131.871094 85.886719 132.363281 85.785156 132.847656 C 85.679688 133.335938 85.527344 133.808594 85.320312 134.265625 C 85.117188 134.722656 84.867188 135.15625 84.570312 135.570312 C 84.273438 135.980469 83.933594 136.363281 83.554688 136.710938 C 83.179688 137.0625 82.765625 137.375 82.324219 137.652344 C 81.878906 137.925781 81.410156 138.160156 80.914062 138.347656 C 80.421875 138.539062 79.910156 138.679688 79.386719 138.777344 C 78.863281 138.875 78.332031 138.921875 77.800781 138.921875 C 77.265625 138.921875 76.734375 138.875 76.210938 138.777344 C 75.6875 138.679688 75.179688 138.539062 74.683594 138.347656 C 74.191406 138.160156 73.722656 137.925781 73.277344 137.652344 C 72.832031 137.375 72.421875 137.0625 72.042969 136.710938 C 71.664062 136.363281 71.328125 135.980469 71.03125 135.570312 C 70.734375 135.15625 70.484375 134.722656 70.277344 134.265625 C 70.074219 133.808594 69.917969 133.335938 69.816406 132.847656 C 69.710938 132.363281 69.660156 131.871094 69.660156 131.375 C 69.660156 130.882812 69.710938 130.390625 69.816406 129.90625 C 69.917969 129.417969 70.074219 128.945312 70.277344 128.488281 C 70.484375 128.03125 70.734375 127.597656 71.03125 127.183594 C 71.328125 126.773438 71.664062 126.390625 72.042969 126.042969 C 72.421875 125.691406 72.832031 125.378906 73.277344 125.101562 C 73.722656 124.828125 74.191406 124.59375 74.683594 124.40625 C 75.179688 124.214844 75.6875 124.074219 76.210938 123.976562 C 76.734375 123.878906 77.265625 123.832031 77.800781 123.832031 C 78.332031 123.832031 78.863281 123.878906 79.386719 123.976562 C 79.910156 124.074219 80.421875 124.214844 80.914062 124.40625 C 81.410156 124.59375 81.878906 124.828125 82.324219 125.101562 C 82.765625 125.378906 83.179688 125.691406 83.554688 126.042969 C 83.933594 126.390625 84.273438 126.773438 84.570312 127.183594 C 84.867188 127.597656 85.117188 128.03125 85.320312 128.488281 C 85.527344 128.945312 85.679688 129.417969 85.785156 129.90625 C 85.886719 130.390625 85.941406 130.882812 85.941406 131.375 Z M 85.941406 131.375 " fill-opacity="1" fill-rule="nonzero"/><path fill="#fabb69" d="M 169.238281 128.847656 C 169.238281 129.339844 169.183594 129.832031 169.082031 130.316406 C 168.976562 130.804688 168.824219 131.273438 168.617188 131.734375 C 168.414062 132.191406 168.164062 132.625 167.867188 133.035156 C 167.570312 133.449219 167.230469 133.828125 166.851562 134.179688 C 166.476562 134.53125 166.0625 134.84375 165.621094 135.117188 C 165.175781 135.394531 164.707031 135.625 164.210938 135.816406 C 163.71875 136.003906 163.207031 136.148438 162.683594 136.246094 C 162.160156 136.339844 161.632812 136.390625 161.097656 136.390625 C 160.5625 136.390625 160.03125 136.339844 159.507812 136.246094 C 158.984375 136.148438 158.476562 136.003906 157.980469 135.816406 C 157.488281 135.625 157.019531 135.394531 156.574219 135.117188 C 156.128906 134.84375 155.71875 134.53125 155.339844 134.179688 C 154.960938 133.828125 154.625 133.449219 154.328125 133.035156 C 154.03125 132.625 153.78125 132.191406 153.574219 131.734375 C 153.371094 131.273438 153.214844 130.804688 153.113281 130.316406 C 153.007812 129.832031 152.957031 129.339844 152.957031 128.847656 C 152.957031 128.351562 153.007812 127.859375 153.113281 127.375 C 153.214844 126.890625 153.371094 126.417969 153.574219 125.960938 C 153.78125 125.503906 154.03125 125.066406 154.328125 124.65625 C 154.625 124.242188 154.960938 123.863281 155.339844 123.511719 C 155.71875 123.164062 156.128906 122.847656 156.574219 122.574219 C 157.019531 122.300781 157.488281 122.066406 157.980469 121.878906 C 158.476562 121.6875 158.984375 121.542969 159.507812 121.449219 C 160.03125 121.351562 160.5625 121.304688 161.097656 121.304688 C 161.632812 121.304688 162.160156 121.351562 162.683594 121.449219 C 163.207031 121.542969 163.71875 121.6875 164.210938 121.878906 C 164.707031 122.066406 165.175781 122.300781 165.621094 122.574219 C 166.0625 122.847656 166.476562 123.164062 166.851562 123.511719 C 167.230469 123.863281 167.570312 124.242188 167.867188 124.65625 C 168.164062 125.066406 168.414062 125.503906 168.617188 125.960938 C 168.824219 126.417969 168.976562 126.890625 169.082031 127.375 C 169.183594 127.859375 169.238281 128.351562 169.238281 128.847656 Z M 169.238281 128.847656 " fill-opacity="1" fill-rule="nonzero"/><path fill="#fabb69" d="M 238.335938 128.847656 C 238.335938 129.339844 238.285156 129.832031 238.179688 130.316406 C 238.078125 130.804688 237.921875 131.273438 237.71875 131.734375 C 237.511719 132.191406 237.261719 132.625 236.964844 133.035156 C 236.667969 133.449219 236.332031 133.828125 235.953125 134.179688 C 235.574219 134.53125 235.164062 134.84375 234.71875 135.117188 C 234.273438 135.394531 233.804688 135.625 233.3125 135.816406 C 232.816406 136.003906 232.308594 136.148438 231.785156 136.246094 C 231.261719 136.339844 230.730469 136.390625 230.195312 136.390625 C 229.660156 136.390625 229.132812 136.339844 228.609375 136.246094 C 228.082031 136.148438 227.574219 136.003906 227.082031 135.816406 C 226.585938 135.625 226.117188 135.394531 225.671875 135.117188 C 225.226562 134.84375 224.816406 134.53125 224.4375 134.179688 C 224.0625 133.828125 223.722656 133.449219 223.425781 133.035156 C 223.128906 132.625 222.878906 132.191406 222.675781 131.734375 C 222.46875 131.273438 222.316406 130.804688 222.210938 130.316406 C 222.105469 129.832031 222.054688 129.339844 222.054688 128.847656 C 222.054688 128.351562 222.105469 127.859375 222.210938 127.375 C 222.316406 126.890625 222.46875 126.417969 222.675781 125.960938 C 222.878906 125.503906 223.128906 125.066406 223.425781 124.65625 C 223.722656 124.242188 224.0625 123.863281 224.4375 123.511719 C 224.816406 123.164062 225.226562 122.847656 225.671875 122.574219 C 226.117188 122.300781 226.585938 122.066406 227.082031 121.878906 C 227.574219 121.6875 228.082031 121.542969 228.609375 121.449219 C 229.132812 121.351562 229.660156 121.304688 230.195312 121.304688 C 230.730469 121.304688 231.261719 121.351562 231.785156 121.449219 C 232.308594 121.542969 232.816406 121.6875 233.3125 121.878906 C 233.804688 122.066406 234.273438 122.300781 234.71875 122.574219 C 235.164062 122.847656 235.574219 123.164062 235.953125 123.511719 C 236.332031 123.863281 236.667969 124.242188 236.964844 124.65625 C 237.261719 125.066406 237.511719 125.503906 237.71875 125.960938 C 237.921875 126.417969 238.078125 126.890625 238.179688 127.375 C 238.285156 127.859375 238.335938 128.351562 238.335938 128.847656 Z M 238.335938 128.847656 " fill-opacity="1" fill-rule="nonzero"/><path fill="#fabb69" d="M 301.414062 155.53125 C 301.414062 156.027344 301.363281 156.515625 301.257812 157.003906 C 301.152344 157.488281 301 157.960938 300.796875 158.417969 C 300.589844 158.875 300.339844 159.3125 300.042969 159.722656 C 299.746094 160.132812 299.410156 160.515625 299.03125 160.867188 C 298.652344 161.214844 298.242188 161.53125 297.796875 161.804688 C 297.351562 162.078125 296.882812 162.3125 296.390625 162.5 C 295.894531 162.691406 295.386719 162.835938 294.863281 162.929688 C 294.335938 163.027344 293.808594 163.078125 293.273438 163.078125 C 292.738281 163.078125 292.210938 163.027344 291.683594 162.929688 C 291.160156 162.835938 290.652344 162.691406 290.15625 162.5 C 289.664062 162.3125 289.195312 162.078125 288.75 161.804688 C 288.304688 161.53125 287.894531 161.214844 287.515625 160.867188 C 287.140625 160.515625 286.800781 160.132812 286.503906 159.722656 C 286.207031 159.3125 285.957031 158.875 285.753906 158.417969 C 285.546875 157.960938 285.394531 157.488281 285.289062 157.003906 C 285.183594 156.515625 285.132812 156.027344 285.132812 155.53125 C 285.132812 155.035156 285.183594 154.542969 285.289062 154.058594 C 285.394531 153.570312 285.546875 153.101562 285.753906 152.644531 C 285.957031 152.183594 286.207031 151.75 286.503906 151.339844 C 286.800781 150.925781 287.140625 150.542969 287.515625 150.195312 C 287.894531 149.84375 288.304688 149.53125 288.75 149.257812 C 289.195312 148.980469 289.664062 148.75 290.15625 148.558594 C 290.652344 148.371094 291.160156 148.226562 291.683594 148.128906 C 292.210938 148.03125 292.738281 147.984375 293.273438 147.984375 C 293.808594 147.984375 294.335938 148.03125 294.863281 148.128906 C 295.386719 148.226562 295.894531 148.371094 296.390625 148.558594 C 296.882812 148.75 297.351562 148.980469 297.796875 149.257812 C 298.242188 149.53125 298.652344 149.84375 299.03125 150.195312 C 299.410156 150.542969 299.746094 150.925781 300.042969 151.339844 C 300.339844 151.75 300.589844 152.183594 300.796875 152.644531 C 301 153.101562 301.152344 153.570312 301.257812 154.058594 C 301.363281 154.542969 301.414062 155.035156 301.414062 155.53125 Z M 301.414062 155.53125 " fill-opacity="1" fill-rule="nonzero"/><path fill="#fabb69" d="M 285.132812 205.511719 C 285.132812 206.007812 285.082031 206.496094 284.976562 206.984375 C 284.875 207.46875 284.71875 207.941406 284.515625 208.398438 C 284.308594 208.855469 284.058594 209.292969 283.761719 209.703125 C 283.464844 210.117188 283.128906 210.496094 282.75 210.847656 C 282.371094 211.199219 281.960938 211.511719 281.515625 211.785156 C 281.070312 212.0625 280.601562 212.292969 280.109375 212.484375 C 279.613281 212.671875 279.105469 212.816406 278.582031 212.914062 C 278.058594 213.007812 277.527344 213.058594 276.992188 213.058594 C 276.457031 213.058594 275.929688 213.007812 275.40625 212.914062 C 274.878906 212.816406 274.371094 212.671875 273.878906 212.484375 C 273.382812 212.292969 272.914062 212.0625 272.46875 211.785156 C 272.023438 211.511719 271.613281 211.199219 271.234375 210.847656 C 270.859375 210.496094 270.519531 210.117188 270.222656 209.703125 C 269.925781 209.292969 269.675781 208.855469 269.472656 208.398438 C 269.265625 207.941406 269.113281 207.46875 269.007812 206.984375 C 268.902344 206.496094 268.851562 206.007812 268.851562 205.511719 C 268.851562 205.015625 268.902344 204.523438 269.007812 204.039062 C 269.113281 203.554688 269.265625 203.082031 269.472656 202.625 C 269.675781 202.164062 269.925781 201.730469 270.222656 201.320312 C 270.519531 200.90625 270.859375 200.527344 271.234375 200.175781 C 271.613281 199.824219 272.023438 199.511719 272.46875 199.238281 C 272.914062 198.960938 273.382812 198.730469 273.878906 198.539062 C 274.371094 198.351562 274.878906 198.207031 275.40625 198.109375 C 275.929688 198.015625 276.457031 197.964844 276.992188 197.964844 C 277.527344 197.964844 278.058594 198.015625 278.582031 198.109375 C 279.105469 198.207031 279.613281 198.351562 280.109375 198.539062 C 280.601562 198.730469 281.070312 198.960938 281.515625 199.238281 C 281.960938 199.511719 282.371094 199.824219 282.75 200.175781 C 283.128906 200.527344 283.464844 200.90625 283.761719 201.320312 C 284.058594 201.730469 284.308594 202.164062 284.515625 202.625 C 284.71875 203.082031 284.875 203.554688 284.976562 204.039062 C 285.082031 204.523438 285.132812 205.015625 285.132812 205.511719 Z M 285.132812 205.511719 " fill-opacity="1" fill-rule="nonzero"/></svg>