<svg xmlns="http://www.w3.org/2000/svg" xmlns:xlink="http://www.w3.org/1999/xlink" width="500" zoomAndPan="magnify" viewBox="0 0 375 374.999991" height="500" preserveAspectRatio="xMidYMid meet" version="1.0"><path fill="#000000" d="M 187.5 0 C 83.945312 0 0 83.945312 0 187.5 C 0 291.054688 83.945312 375 187.5 375 C 291.054688 375 375 291.054688 375 187.5 C 375 83.945312 291.054688 0 187.5 0 " fill-opacity="1" fill-rule="nonzero"/><path fill="#e6e9ed" d="M 186.125 54.78125 C 259.253906 54.78125 318.605469 113.984375 318.605469 187.058594 C 318.605469 260.074219 259.253906 319.332031 186.125 319.332031 C 112.996094 319.332031 53.648438 260.074219 53.648438 187.058594 C 53.648438 113.984375 112.996094 54.78125 186.125 54.78125 Z M 300.058594 187.058594 C 300.058594 124.253906 249.027344 73.300781 186.125 73.300781 C 123.226562 73.300781 72.195312 124.253906 72.195312 187.058594 C 72.195312 249.863281 123.226562 300.8125 186.125 300.8125 C 249.027344 300.8125 300.058594 249.863281 300.058594 187.058594 Z M 300.058594 187.058594 " fill-opacity="1" fill-rule="nonzero"/><path fill="#656d78" d="M 186.125 73.300781 C 249.027344 73.300781 300.058594 124.253906 300.058594 187.058594 C 300.058594 249.863281 249.027344 300.8125 186.125 300.8125 C 123.226562 300.8125 72.195312 249.863281 72.195312 187.058594 C 72.195312 124.253906 123.226562 73.300781 186.125 73.300781 Z M 159.628906 266.421875 L 239.117188 165.839844 L 191.425781 165.839844 L 219.511719 112.929688 L 180.828125 112.929688 L 133.136719 202.878906 L 180.828125 202.878906 Z M 159.628906 266.421875 " fill-opacity="1" fill-rule="nonzero"/><path fill="#ffce54" d="M 239.117188 165.839844 L 159.628906 266.421875 L 180.828125 202.878906 L 133.136719 202.878906 L 180.828125 112.929688 L 219.511719 112.929688 L 191.425781 165.839844 Z M 239.117188 165.839844 " fill-opacity="1" fill-rule="nonzero"/><path fill="#ffce54" d="M 49.65625 283.703125 C 47.949219 283.703125 46.277344 282.882812 45.253906 281.363281 C 0.214844 214.449219 9.035156 124.4375 66.21875 67.34375 C 132.335938 1.328125 239.90625 1.328125 306.023438 67.34375 C 308.097656 69.414062 308.097656 72.757812 306.023438 74.824219 C 303.953125 76.894531 300.605469 76.894531 298.53125 74.824219 C 236.546875 12.9375 135.695312 12.9375 73.710938 74.824219 C 20.097656 128.347656 11.832031 212.730469 54.050781 275.460938 C 55.683594 277.882812 55.042969 281.167969 52.609375 282.804688 C 51.703125 283.410156 50.667969 283.703125 49.65625 283.703125 Z M 49.65625 283.703125 " fill-opacity="1" fill-rule="nonzero"/><path fill="#ffce54" d="M 186.121094 356.285156 C 142.695312 356.289062 99.277344 339.789062 66.21875 306.777344 C 64.144531 304.707031 64.144531 301.363281 66.21875 299.296875 C 68.289062 297.226562 71.636719 297.226562 73.710938 299.296875 C 135.695312 361.183594 236.546875 361.183594 298.53125 299.296875 C 352.152344 245.761719 360.421875 161.378906 318.191406 98.644531 C 316.558594 96.222656 317.199219 92.9375 319.632812 91.300781 C 322.058594 89.660156 325.351562 90.316406 326.988281 92.742188 C 372.035156 159.65625 363.21875 249.671875 306.023438 306.773438 C 272.972656 339.777344 229.535156 356.28125 186.121094 356.285156 Z M 186.121094 356.285156 " fill-opacity="1" fill-rule="nonzero"/><path fill="#ffce54" d="M 302.277344 76.371094 L 282.910156 76.363281 C 279.980469 76.363281 277.609375 73.996094 277.609375 71.074219 C 277.609375 68.148438 279.984375 65.78125 282.910156 65.78125 L 302.277344 65.789062 C 305.207031 65.789062 307.578125 68.160156 307.578125 71.078125 C 307.578125 74.003906 305.203125 76.371094 302.277344 76.371094 Z M 302.277344 76.371094 " fill-opacity="1" fill-rule="nonzero"/><path fill="#ffce54" d="M 302.277344 76.371094 C 299.347656 76.371094 296.980469 74.003906 296.980469 71.078125 L 296.980469 51.734375 C 296.980469 48.808594 299.347656 46.445312 302.277344 46.445312 C 305.207031 46.445312 307.578125 48.808594 307.578125 51.734375 L 307.578125 71.078125 C 307.578125 74.003906 305.207031 76.371094 302.277344 76.371094 Z M 302.277344 76.371094 " fill-opacity="1" fill-rule="nonzero"/><path fill="#ffce54" d="M 89.332031 308.332031 L 69.964844 308.328125 C 67.035156 308.328125 64.664062 305.957031 64.664062 303.035156 C 64.664062 300.109375 67.039062 297.746094 69.964844 297.746094 L 89.332031 297.75 C 92.261719 297.75 94.632812 300.121094 94.632812 303.042969 C 94.632812 305.96875 92.257812 308.332031 89.332031 308.332031 Z M 89.332031 308.332031 " fill-opacity="1" fill-rule="nonzero"/><path fill="#ffce54" d="M 69.964844 327.671875 C 67.035156 327.671875 64.664062 325.304688 64.664062 322.378906 L 64.664062 303.035156 C 64.664062 300.109375 67.035156 297.746094 69.964844 297.746094 C 72.894531 297.746094 75.261719 300.109375 75.261719 303.035156 L 75.261719 322.378906 C 75.261719 325.304688 72.894531 327.671875 69.964844 327.671875 Z M 69.964844 327.671875 " fill-opacity="1" fill-rule="nonzero"/><path fill="#ffce54" d="M 133.117188 208.207031 C 132.285156 208.207031 131.4375 208.011719 130.644531 207.59375 C 128.058594 206.222656 127.066406 203.027344 128.441406 200.4375 L 176.132812 110.492188 C 177.503906 107.914062 180.695312 106.914062 183.296875 108.289062 C 185.882812 109.660156 186.875 112.855469 185.5 115.445312 L 137.808594 205.390625 C 136.855469 207.183594 135.015625 208.207031 133.117188 208.207031 Z M 133.117188 208.207031 " fill-opacity="1" fill-rule="nonzero"/><path fill="#ffce54" d="M 191.429688 171.167969 C 190.597656 171.167969 189.75 170.972656 188.957031 170.554688 C 186.371094 169.183594 185.378906 165.988281 186.75 163.402344 L 214.804688 110.492188 C 216.175781 107.914062 219.375 106.914062 221.96875 108.289062 C 224.554688 109.660156 225.546875 112.855469 224.175781 115.445312 L 196.121094 168.355469 C 195.167969 170.148438 193.328125 171.167969 191.429688 171.167969 Z M 191.429688 171.167969 " fill-opacity="1" fill-rule="nonzero"/><path fill="#ffce54" d="M 159.613281 271.707031 C 158.464844 271.707031 157.304688 271.339844 156.339844 270.570312 C 154.039062 268.757812 153.648438 265.429688 155.460938 263.140625 L 234.957031 162.582031 C 236.777344 160.289062 240.121094 159.898438 242.398438 161.703125 C 244.699219 163.519531 245.089844 166.847656 243.277344 169.132812 L 163.78125 269.691406 C 162.734375 271.015625 161.183594 271.707031 159.613281 271.707031 Z M 159.613281 271.707031 " fill-opacity="1" fill-rule="nonzero"/><path fill="#ffce54" d="M 180.800781 208.207031 L 133.125 208.207031 C 130.195312 208.207031 127.824219 205.839844 127.824219 202.914062 C 127.824219 199.988281 130.195312 197.625 133.125 197.625 L 180.800781 197.625 C 183.730469 197.625 186.101562 199.988281 186.101562 202.914062 C 186.101562 205.839844 183.730469 208.207031 180.800781 208.207031 Z M 180.800781 208.207031 " fill-opacity="1" fill-rule="nonzero"/><path fill="#ffce54" d="M 159.621094 271.707031 C 159.070312 271.707031 158.5 271.617188 157.945312 271.4375 C 155.175781 270.511719 153.667969 267.519531 154.589844 264.738281 L 175.773438 201.238281 C 176.695312 198.46875 179.675781 196.976562 182.480469 197.886719 C 185.25 198.816406 186.757812 201.808594 185.835938 204.585938 L 164.652344 268.089844 C 163.914062 270.304688 161.839844 271.707031 159.621094 271.707031 Z M 159.621094 271.707031 " fill-opacity="1" fill-rule="nonzero"/><path fill="#ffce54" d="M 239.117188 171.148438 L 191.445312 171.148438 C 188.515625 171.148438 186.148438 168.78125 186.148438 165.855469 C 186.148438 162.929688 188.515625 160.566406 191.445312 160.566406 L 239.117188 160.566406 C 242.046875 160.566406 244.417969 162.929688 244.417969 165.855469 C 244.417969 168.78125 242.046875 171.148438 239.117188 171.148438 Z M 239.117188 171.148438 " fill-opacity="1" fill-rule="nonzero"/><path fill="#ffce54" d="M 219.488281 118.257812 L 180.816406 118.257812 C 177.886719 118.257812 175.515625 115.894531 175.515625 112.96875 C 175.515625 110.042969 177.886719 107.675781 180.816406 107.675781 L 219.488281 107.675781 C 222.421875 107.675781 224.789062 110.042969 224.789062 112.96875 C 224.789062 115.894531 222.421875 118.257812 219.488281 118.257812 Z M 219.488281 118.257812 " fill-opacity="1" fill-rule="nonzero"/><path fill="#656d78" d="M 186.121094 306.105469 C 120.378906 306.105469 66.890625 252.699219 66.890625 187.058594 C 66.890625 121.417969 120.378906 68.011719 186.121094 68.011719 C 251.863281 68.011719 305.351562 121.417969 305.351562 187.058594 C 305.351562 252.699219 251.863281 306.105469 186.121094 306.105469 Z M 186.121094 78.59375 C 126.21875 78.59375 77.488281 127.25 77.488281 187.058594 C 77.488281 246.867188 126.21875 295.523438 186.121094 295.523438 C 246.023438 295.523438 294.753906 246.867188 294.753906 187.058594 C 294.753906 127.25 246.023438 78.59375 186.121094 78.59375 Z M 186.121094 78.59375 " fill-opacity="1" fill-rule="nonzero"/></svg>