<svg xmlns="http://www.w3.org/2000/svg" xmlns:xlink="http://www.w3.org/1999/xlink" width="500" zoomAndPan="magnify" viewBox="0 0 375 374.999991" height="500" preserveAspectRatio="xMidYMid meet" version="1.0"><defs><clipPath id="id1"><path d="M 97.027344 21.496094 L 277.777344 21.496094 L 277.777344 222 L 97.027344 222 Z M 97.027344 21.496094 " clip-rule="nonzero"/></clipPath><clipPath id="id2"><path d="M 125 229 L 250 229 L 250 353.746094 L 125 353.746094 Z M 125 229 " clip-rule="nonzero"/></clipPath></defs><path fill="#000000" d="M 187.5 0 C 83.945312 0 0 83.945312 0 187.5 C 0 291.054688 83.945312 375 187.5 375 C 291.054688 375 375 291.054688 375 187.5 C 375 83.945312 291.054688 0 187.5 0 " fill-opacity="1" fill-rule="nonzero"/><g clip-path="url(#id1)"><path fill="#6d6c1b" d="M 134.261719 21.492188 L 131.902344 21.492188 L 97.050781 165.207031 L 181.398438 220.976562 L 179.882812 214.558594 L 191.628906 214.558594 L 193.175781 221.101562 L 277.707031 165.210938 L 242.855469 21.492188 Z M 181.507812 221.046875 L 181.609375 220.976562 L 181.582031 221.101562 Z M 181.507812 221.046875 " fill-opacity="1" fill-rule="evenodd"/></g><path fill="#5c5b14" d="M 136.664062 27.558594 L 103.941406 162.496094 L 180.710938 213.308594 C 181.816406 212.300781 178.324219 214.558594 179.882812 214.558594 L 191.628906 214.558594 C 193.824219 214.558594 192.828125 211.367188 193.890625 213.160156 L 270.8125 162.496094 L 238.09375 27.558594 L 136.664062 27.558594 " fill-opacity="1" fill-rule="evenodd"/><path fill="#f9b813" d="M 187.378906 209.601562 C 191.363281 209.601562 194.972656 211.222656 197.585938 213.835938 C 200.195312 216.453125 201.8125 220.070312 201.8125 224.0625 C 201.8125 228.054688 200.195312 231.667969 197.585938 234.285156 C 194.972656 236.902344 191.363281 238.523438 187.378906 238.523438 C 183.394531 238.523438 179.785156 236.902344 177.171875 234.285156 C 174.5625 231.667969 172.945312 228.054688 172.945312 224.0625 C 172.945312 220.070312 174.5625 216.453125 177.171875 213.835938 C 179.785156 211.222656 183.394531 209.601562 187.378906 209.601562 Z M 192.042969 219.386719 C 190.851562 218.191406 189.199219 217.453125 187.378906 217.453125 C 185.554688 217.453125 183.90625 218.191406 182.710938 219.386719 C 181.519531 220.582031 180.78125 222.238281 180.78125 224.0625 C 180.78125 225.886719 181.519531 227.539062 182.710938 228.738281 C 183.90625 229.933594 185.554688 230.671875 187.378906 230.671875 C 189.199219 230.671875 190.851562 229.933594 192.042969 228.738281 C 193.238281 227.539062 193.976562 225.886719 193.976562 224.0625 C 193.976562 222.238281 193.238281 220.582031 192.042969 219.386719 " fill-opacity="1" fill-rule="evenodd"/><g clip-path="url(#id2)"><path fill="#f9b813" d="M 187.378906 353.742188 C 221.460938 353.742188 249.253906 325.898438 249.253906 291.757812 C 249.253906 257.617188 221.460938 229.773438 187.378906 229.773438 C 153.300781 229.773438 125.503906 257.617188 125.503906 291.757812 C 125.503906 325.898438 153.300781 353.742188 187.378906 353.742188 " fill-opacity="1" fill-rule="evenodd"/></g><path fill="#d09a07" d="M 188.101562 234.597656 C 204.21875 234.597656 218.8125 241.140625 229.371094 251.722656 C 239.9375 262.304688 246.46875 276.921875 246.46875 293.070312 C 246.46875 309.214844 239.9375 323.835938 229.371094 334.414062 C 218.8125 344.996094 204.21875 351.539062 188.101562 351.539062 C 155.863281 351.539062 129.730469 325.363281 129.730469 293.070312 C 129.730469 276.921875 136.265625 262.304688 146.828125 251.722656 C 157.390625 241.140625 171.980469 234.597656 188.101562 234.597656 Z M 228.207031 252.890625 C 217.941406 242.609375 203.761719 236.25 188.101562 236.25 C 172.4375 236.25 158.257812 242.609375 147.996094 252.890625 C 137.730469 263.175781 131.382812 277.378906 131.382812 293.070312 C 131.382812 324.449219 156.777344 349.886719 188.101562 349.886719 C 203.761719 349.886719 217.941406 343.527344 228.207031 333.246094 C 238.46875 322.964844 244.820312 308.757812 244.820312 293.070312 C 244.820312 277.378906 238.46875 263.175781 228.207031 252.890625 " fill-opacity="1" fill-rule="evenodd"/><path fill="#f7c800" d="M 187.378906 233.289062 C 203.496094 233.289062 218.089844 239.832031 228.648438 250.414062 C 239.214844 260.996094 245.746094 275.613281 245.746094 291.761719 C 245.746094 307.90625 239.214844 322.527344 228.648438 333.105469 C 218.089844 343.6875 203.496094 350.234375 187.378906 350.234375 C 155.140625 350.234375 129.011719 324.050781 129.011719 291.761719 C 129.011719 275.613281 135.542969 260.996094 146.105469 250.414062 C 156.667969 239.832031 171.261719 233.289062 187.378906 233.289062 Z M 227.484375 251.582031 C 217.21875 241.300781 203.039062 234.941406 187.378906 234.941406 C 171.714844 234.941406 157.535156 241.300781 147.273438 251.582031 C 137.007812 261.863281 130.660156 276.070312 130.660156 291.761719 C 130.660156 323.140625 156.054688 348.578125 187.378906 348.578125 C 203.039062 348.578125 217.21875 342.21875 227.484375 331.9375 C 237.75 321.65625 244.097656 307.449219 244.097656 291.761719 C 244.097656 276.070312 237.75 261.863281 227.484375 251.582031 " fill-opacity="1" fill-rule="evenodd"/><path fill="#e21e24" d="M 162.109375 327.507812 L 162.109375 327.511719 L 163.410156 300.464844 L 187.382812 292.660156 L 187.378906 292.667969 L 162.109375 327.507812 " fill-opacity="1" fill-rule="evenodd"/><path fill="#e21e24" d="M 212.660156 327.507812 L 187.410156 292.691406 L 187.390625 292.664062 L 187.386719 292.660156 L 187.382812 292.660156 L 187.382812 317.910156 L 187.386719 317.910156 L 212.660156 327.507812 " fill-opacity="1" fill-rule="evenodd"/><path fill="#c11212" d="M 187.382812 292.660156 L 187.382812 317.910156 L 162.109375 327.507812 L 187.378906 292.667969 L 187.382812 292.660156 " fill-opacity="1" fill-rule="evenodd"/><path fill="#c11212" d="M 211.359375 300.464844 L 187.398438 292.664062 L 187.386719 292.660156 L 187.390625 292.664062 L 187.410156 292.691406 L 212.660156 327.507812 L 212.660156 327.511719 L 211.359375 300.464844 " fill-opacity="1" fill-rule="evenodd"/><path fill="#c11212" d="M 172.5625 272.234375 L 187.375 292.648438 L 187.382812 292.660156 L 187.382812 292.617188 L 187.375 249.582031 L 187.371094 249.582031 L 172.5625 272.234375 " fill-opacity="1" fill-rule="evenodd"/><path fill="#c11212" d="M 187.386719 292.65625 L 187.390625 292.652344 L 187.460938 292.554688 L 202.203125 272.230469 L 202.269531 272.246094 L 228.28125 279.34375 L 205 286.921875 L 187.460938 292.632812 L 187.410156 292.648438 L 187.402344 292.652344 L 187.386719 292.65625 " fill-opacity="1" fill-rule="evenodd"/><path fill="#e21e24" d="M 187.386719 292.660156 L 187.398438 292.664062 L 211.359375 300.464844 L 187.398438 292.664062 L 187.386719 292.660156 " fill-opacity="1" fill-rule="evenodd"/><path fill="#e21e24" d="M 172.566406 272.226562 L 172.570312 272.226562 L 172.605469 272.175781 Z M 172.566406 272.226562 " fill-opacity="1" fill-rule="evenodd"/><path fill="#e21e24" d="M 187.398438 292.664062 L 211.359375 300.464844 L 187.398438 292.664062 " fill-opacity="1" fill-rule="evenodd"/><path fill="#e21e24" d="M 187.386719 292.65625 L 187.382812 292.652344 L 187.3125 292.554688 L 172.570312 272.230469 L 172.503906 272.246094 L 146.492188 279.34375 L 169.773438 286.921875 L 187.308594 292.632812 L 187.363281 292.648438 L 187.371094 292.652344 L 187.386719 292.65625 " fill-opacity="1" fill-rule="evenodd"/><path fill="#e21e24" d="M 202.207031 272.234375 L 187.390625 292.648438 L 187.382812 292.660156 L 187.382812 292.617188 L 187.398438 249.582031 L 202.207031 272.234375 " fill-opacity="1" fill-rule="evenodd"/><path fill="#c11212" d="M 187.371094 292.652344 L 187.363281 292.65625 L 187.25 292.691406 L 163.402344 300.464844 L 163.359375 300.410156 L 146.472656 279.355469 L 169.757812 286.925781 L 187.296875 292.628906 L 187.347656 292.648438 L 187.355469 292.648438 L 187.371094 292.652344 " fill-opacity="1" fill-rule="evenodd"/><path fill="#e21e24" d="M 187.371094 292.652344 L 187.378906 292.65625 L 187.492188 292.691406 L 211.34375 300.464844 L 211.382812 300.410156 L 228.269531 279.355469 L 204.988281 286.925781 L 187.445312 292.628906 L 187.394531 292.648438 L 187.390625 292.648438 L 187.371094 292.652344 " fill-opacity="1" fill-rule="evenodd"/></svg>