<svg width="1584" height="432" viewBox="0 0 1584 432" fill="none" xmlns="http://www.w3.org/2000/svg">
<path d="M1236 350C1242 355.5 1246 376.5 1245 385.5" stroke="black" stroke-width="5" stroke-linecap="round" stroke-dasharray="10 10"/>
<path d="M1334 369.5C1337.2 378.7 1335.33 397 1334 405" stroke="black" stroke-width="5" stroke-linecap="round" stroke-dasharray="10 10"/>
<path d="M616 352C625 305 657 289 692 288" stroke="black" stroke-width="5" stroke-linecap="round" stroke-dasharray="10 10"/>
<path d="M731 70C727 38 717 36 695 33" stroke="black" stroke-width="5" stroke-linecap="round" stroke-dasharray="10 10"/>
<path d="M661 20C657 9 656 9 651 2.5" stroke="black" stroke-width="5" stroke-linecap="round" stroke-dasharray="10 10"/>
<path d="M748.5 84.5C762.5 84.5 772.333 90.8333 775.5 94" stroke="black" stroke-width="5" stroke-linecap="round" stroke-dasharray="10 10"/>
<path d="M718 105.5C719.5 117 723 142.5 729 146" stroke="black" stroke-width="5" stroke-linecap="round" stroke-dasharray="10 10"/>
<path d="M816.5 166.5C814.5 176.5 818 189 827.5 194.5" stroke="black" stroke-width="5" stroke-linecap="round" stroke-dasharray="10 10"/>
<path d="M842 175.5C844.8 181.5 843.167 190.667 842 194.5" stroke="black" stroke-width="5" stroke-linecap="round" stroke-dasharray="10 10"/>
<path d="M1465.5 14.5C1511.5 2.1 1561.67 3 1581 5" stroke="black" stroke-width="5" stroke-linecap="round" stroke-dasharray="10 10"/>
<path d="M93.5 27C57.9 11.4 18.3333 13.5 3 16.5" stroke="black" stroke-width="5" stroke-linecap="round" stroke-dasharray="10 10"/>
<path d="M557 51C550.5 67.5 530.5 79 514 79" stroke="black" stroke-width="5" stroke-linecap="round" stroke-dasharray="10 10"/>
<path d="M1183.5 284C1191.1 289.2 1196.33 305.167 1198 312.5" stroke="black" stroke-width="5" stroke-linecap="round" stroke-dasharray="10 10"/>
<path d="M1150 279.5V302" stroke="black" stroke-width="5" stroke-linecap="round" stroke-dasharray="10 10"/>
<path d="M1171 338L1183.5 333" stroke="black" stroke-width="5" stroke-linecap="round" stroke-dasharray="10 10"/>
<path d="M1232 335.5C1237 334 1261 332 1271.5 335.5" stroke="black" stroke-width="5" stroke-linecap="round" stroke-dasharray="10 10"/>
<path d="M1174 357.5C1176 376 1189 400.5 1208.5 411" stroke="black" stroke-width="5" stroke-linecap="round" stroke-dasharray="10 10"/>
<path d="M914 364C925 366 937 375.5 941 385.5" stroke="black" stroke-width="5" stroke-linecap="round" stroke-dasharray="10 10"/>
<path d="M924 424.5C915.5 430 906 431.5 891.5 424.5" stroke="black" stroke-width="5" stroke-linecap="round" stroke-dasharray="10 10"/>
<path d="M1310.5 136V140" stroke="black" stroke-width="5" stroke-linecap="round" stroke-dasharray="10 10"/>
<path d="M1261.5 187.5L1265 189.5" stroke="black" stroke-width="5" stroke-linecap="round" stroke-dasharray="10 10"/>
</svg>
